<?xml version="1.0" standalone="no"?>
<!DOCTYPE svg PUBLIC "-//W3C//DTD SVG 20010904//EN"
 "http://www.w3.org/TR/2001/REC-SVG-20010904/DTD/svg10.dtd">
<svg version="1.0" xmlns="http://www.w3.org/2000/svg"
 width="357.000000pt" height="357.000000pt" viewBox="0 0 357.000000 357.000000"
 preserveAspectRatio="xMidYMid meet">
<metadata>
Created by potrace 1.14, written by Peter Selinger 2001-2017
</metadata>
<g transform="translate(0.000000,357.000000) scale(0.100000,-0.100000)"
fill="#000000" stroke="none">
<path d="M10 1785 l0 -1785 1775 0 1775 0 0 1785 0 1785 -1775 0 -1775 0 0
-1785z m2705 978 c114 -28 195 -86 259 -183 52 -78 70 -92 141 -110 58 -13
175 -73 201 -101 16 -18 16 -19 -10 -19 -47 0 -169 -32 -221 -57 -65 -32 -101
-67 -130 -123 -34 -68 -45 -137 -55 -347 -5 -106 -16 -223 -25 -259 -52 -226
-216 -377 -472 -434 -67 -15 -106 -30 -122 -45 l-24 -23 116 -116 c84 -85 110
-117 98 -120 -9 -3 -56 -12 -106 -21 -49 -8 -100 -18 -112 -20 -17 -4 -38 10
-91 60 -65 61 -137 104 -173 105 -33 0 -69 41 -84 95 -19 62 -19 62 -110 100
-92 39 -196 109 -291 198 l-77 72 44 7 c24 3 123 7 219 7 343 2 502 41 625
153 30 27 65 73 84 110 l32 63 -32 -40 c-98 -120 -205 -187 -359 -226 -75 -18
-128 -22 -465 -30 -209 -4 -399 -12 -422 -17 -24 -5 -43 -7 -43 -3 0 3 16 29
36 57 47 69 92 99 239 160 12 5 -56 11 -175 15 -107 4 -283 17 -390 28 -107
12 -274 28 -370 37 -96 9 -181 18 -188 20 -10 3 -2 19 23 54 47 65 73 131 81
215 6 61 9 66 28 62 150 -32 907 -237 1002 -271 40 -14 43 -13 85 15 61 40
167 80 360 134 191 54 288 91 363 139 120 77 185 178 211 330 16 94 26 116 55
116 37 0 28 15 -22 42 l-53 27 38 1 c20 0 37 3 37 8 0 4 -26 22 -57 39 -39 22
-51 33 -38 34 11 0 38 6 60 13 l40 13 -45 21 c-50 23 -44 29 35 35 75 6 182
-3 250 -20z"/>
<path d="M2121 1037 c-23 -62 -23 -64 15 -94 20 -15 56 -44 81 -65 50 -40 94
-52 149 -42 l36 7 -79 79 c-79 80 -116 108 -166 127 -24 9 -29 8 -36 -12z"/>
</g>
</svg>
