<?xml version="1.0" encoding="utf-8"?>
<svg xmlns="http://www.w3.org/2000/svg" width="500" zoomAndPan="magnify" viewBox="46.828 126.236 283.746 187.058" height="500" preserveAspectRatio="none" version="1.0" xmlns:bx="https://boxy-svg.com"><defs><g/><bx:guide x="76.89" y="171.707" angle="90"/><bx:guide x="78.85" y="202.168" angle="90"/><mask id="mask-0"><rect x="41.975" y="110.792" width="298.113" height="60.915" style="stroke: rgb(0, 0, 0); fill: rgb(255, 255, 255); stroke-width: 0px;"/><rect x="66.17" y="202.168" width="253.244" height="50.064" style="stroke: rgb(0, 0, 0); fill: rgb(255, 255, 255); stroke-width: 0px;"/></mask><bx:export><bx:file format="svg"/><bx:file format="png"/></bx:export></defs><g style="visibility: hidden;"><path d="M 57.351562 172.328125 L 316.421875 172.328125 L 316.421875 202.378906 L 57.351562 202.378906 Z M 57.351562 172.328125 " fill-opacity="1" fill-rule="nonzero" style="fill: rgb(255, 255, 255);"/></g><g transform="matrix(1, 0, 0, 1, -2.707698, 0.129288)" style=""><g><g fill="#000000" fill-opacity="1"><g transform="translate(89.739704, 191.496863)"><g><path d="M 9.6875 0 L 9.671875 -5.65625 L 6.90625 -1 L 5.921875 -1 L 3.15625 -5.53125 L 3.15625 0 L 1.109375 0 L 1.109375 -9.421875 L 2.921875 -9.421875 L 6.4375 -3.5625 L 9.921875 -9.421875 L 11.703125 -9.421875 L 11.734375 0 Z M 9.6875 0 "/></g></g></g><g fill="#000000" fill-opacity="1"><g transform="translate(107.234503, 191.496863)"><g><path d="M 5.671875 0.15625 C 4.691406 0.15625 3.8125 -0.0507812 3.03125 -0.46875 C 2.25 -0.894531 1.632812 -1.476562 1.1875 -2.21875 C 0.75 -2.957031 0.53125 -3.785156 0.53125 -4.703125 C 0.53125 -5.628906 0.75 -6.460938 1.1875 -7.203125 C 1.632812 -7.941406 2.25 -8.519531 3.03125 -8.9375 C 3.8125 -9.363281 4.691406 -9.578125 5.671875 -9.578125 C 6.648438 -9.578125 7.53125 -9.363281 8.3125 -8.9375 C 9.09375 -8.519531 9.707031 -7.941406 10.15625 -7.203125 C 10.601562 -6.460938 10.828125 -5.628906 10.828125 -4.703125 C 10.828125 -3.785156 10.601562 -2.957031 10.15625 -2.21875 C 9.707031 -1.476562 9.09375 -0.894531 8.3125 -0.46875 C 7.53125 -0.0507812 6.648438 0.15625 5.671875 0.15625 Z M 5.671875 -1.6875 C 6.234375 -1.6875 6.738281 -1.816406 7.1875 -2.078125 C 7.632812 -2.335938 7.984375 -2.691406 8.234375 -3.140625 C 8.492188 -3.597656 8.625 -4.117188 8.625 -4.703125 C 8.625 -5.285156 8.492188 -5.804688 8.234375 -6.265625 C 7.984375 -6.722656 7.632812 -7.078125 7.1875 -7.328125 C 6.738281 -7.585938 6.234375 -7.71875 5.671875 -7.71875 C 5.117188 -7.71875 4.617188 -7.585938 4.171875 -7.328125 C 3.722656 -7.078125 3.367188 -6.722656 3.109375 -6.265625 C 2.859375 -5.804688 2.734375 -5.285156 2.734375 -4.703125 C 2.734375 -4.117188 2.859375 -3.597656 3.109375 -3.140625 C 3.367188 -2.691406 3.722656 -2.335938 4.171875 -2.078125 C 4.617188 -1.816406 5.117188 -1.6875 5.671875 -1.6875 Z M 5.671875 -1.6875 "/></g></g></g><g fill="#000000" fill-opacity="1"><g transform="translate(123.236687, 191.496863)"><g><path d="M 9.75 -9.421875 L 9.75 0 L 7.96875 0 L 3.265625 -5.71875 L 3.265625 0 L 1.109375 0 L 1.109375 -9.421875 L 2.921875 -9.421875 L 7.59375 -3.703125 L 7.59375 -9.421875 Z M 9.75 -9.421875 "/></g></g></g><g fill="#000000" fill-opacity="1"><g transform="translate(138.754785, 191.496863)"><g><path d="M 1.109375 -9.421875 L 3.296875 -9.421875 L 3.296875 0 L 1.109375 0 Z M 1.109375 -9.421875 "/></g></g></g><g fill="#000000" fill-opacity="1"><g transform="translate(147.818323, 191.496863)"><g><path d="M 11.296875 1.015625 C 10.992188 1.390625 10.625 1.675781 10.1875 1.875 C 9.75 2.070312 9.273438 2.171875 8.765625 2.171875 C 8.054688 2.171875 7.421875 2.019531 6.859375 1.71875 C 6.296875 1.414062 5.648438 0.882812 4.921875 0.125 C 4.066406 0.0078125 3.304688 -0.265625 2.640625 -0.703125 C 1.972656 -1.140625 1.453125 -1.703125 1.078125 -2.390625 C 0.710938 -3.085938 0.53125 -3.859375 0.53125 -4.703125 C 0.53125 -5.628906 0.75 -6.460938 1.1875 -7.203125 C 1.632812 -7.941406 2.25 -8.519531 3.03125 -8.9375 C 3.8125 -9.363281 4.691406 -9.578125 5.671875 -9.578125 C 6.648438 -9.578125 7.53125 -9.363281 8.3125 -8.9375 C 9.09375 -8.519531 9.707031 -7.941406 10.15625 -7.203125 C 10.601562 -6.460938 10.828125 -5.628906 10.828125 -4.703125 C 10.828125 -3.609375 10.519531 -2.648438 9.90625 -1.828125 C 9.289062 -1.003906 8.476562 -0.429688 7.46875 -0.109375 C 7.6875 0.117188 7.898438 0.285156 8.109375 0.390625 C 8.328125 0.492188 8.554688 0.546875 8.796875 0.546875 C 9.378906 0.546875 9.890625 0.316406 10.328125 -0.140625 Z M 2.734375 -4.703125 C 2.734375 -4.117188 2.859375 -3.597656 3.109375 -3.140625 C 3.367188 -2.691406 3.722656 -2.335938 4.171875 -2.078125 C 4.617188 -1.816406 5.117188 -1.6875 5.671875 -1.6875 C 6.234375 -1.6875 6.738281 -1.816406 7.1875 -2.078125 C 7.632812 -2.335938 7.984375 -2.691406 8.234375 -3.140625 C 8.492188 -3.597656 8.625 -4.117188 8.625 -4.703125 C 8.625 -5.285156 8.492188 -5.804688 8.234375 -6.265625 C 7.984375 -6.722656 7.632812 -7.078125 7.1875 -7.328125 C 6.738281 -7.585938 6.234375 -7.71875 5.671875 -7.71875 C 5.117188 -7.71875 4.617188 -7.585938 4.171875 -7.328125 C 3.722656 -7.078125 3.367188 -6.722656 3.109375 -6.265625 C 2.859375 -5.804688 2.734375 -5.285156 2.734375 -4.703125 Z M 2.734375 -4.703125 "/></g></g></g><g fill="#000000" fill-opacity="1"><g transform="translate(163.82051, 191.496863)"><g><path d="M 5.296875 0.15625 C 3.953125 0.15625 2.90625 -0.210938 2.15625 -0.953125 C 1.40625 -1.703125 1.03125 -2.765625 1.03125 -4.140625 L 1.03125 -9.421875 L 3.21875 -9.421875 L 3.21875 -4.21875 C 3.21875 -2.53125 3.914062 -1.6875 5.3125 -1.6875 C 6 -1.6875 6.519531 -1.890625 6.875 -2.296875 C 7.226562 -2.710938 7.40625 -3.351562 7.40625 -4.21875 L 7.40625 -9.421875 L 9.5625 -9.421875 L 9.5625 -4.140625 C 9.5625 -2.765625 9.1875 -1.703125 8.4375 -0.953125 C 7.6875 -0.210938 6.640625 0.15625 5.296875 0.15625 Z M 5.296875 0.15625 "/></g></g></g><g fill="#000000" fill-opacity="1"><g transform="translate(179.069654, 191.496863)"><g><path d="M 8.40625 -1.75 L 8.40625 0 L 1.109375 0 L 1.109375 -9.421875 L 8.234375 -9.421875 L 8.234375 -7.671875 L 3.28125 -7.671875 L 3.28125 -5.625 L 7.65625 -5.625 L 7.65625 -3.921875 L 3.28125 -3.921875 L 3.28125 -1.75 Z M 8.40625 -1.75 "/></g></g></g><g fill="#000000" fill-opacity="1"><g transform="translate(201.203911, 191.496863)"><g><path d="M 9.6875 0 L 9.671875 -5.65625 L 6.90625 -1 L 5.921875 -1 L 3.15625 -5.53125 L 3.15625 0 L 1.109375 0 L 1.109375 -9.421875 L 2.921875 -9.421875 L 6.4375 -3.5625 L 9.921875 -9.421875 L 11.703125 -9.421875 L 11.734375 0 Z M 9.6875 0 "/></g></g></g><g fill="#000000" fill-opacity="1"><g transform="translate(218.698707, 191.496863)"><g><path d="M 5.671875 0.15625 C 4.691406 0.15625 3.8125 -0.0507812 3.03125 -0.46875 C 2.25 -0.894531 1.632812 -1.476562 1.1875 -2.21875 C 0.75 -2.957031 0.53125 -3.785156 0.53125 -4.703125 C 0.53125 -5.628906 0.75 -6.460938 1.1875 -7.203125 C 1.632812 -7.941406 2.25 -8.519531 3.03125 -8.9375 C 3.8125 -9.363281 4.691406 -9.578125 5.671875 -9.578125 C 6.648438 -9.578125 7.53125 -9.363281 8.3125 -8.9375 C 9.09375 -8.519531 9.707031 -7.941406 10.15625 -7.203125 C 10.601562 -6.460938 10.828125 -5.628906 10.828125 -4.703125 C 10.828125 -3.785156 10.601562 -2.957031 10.15625 -2.21875 C 9.707031 -1.476562 9.09375 -0.894531 8.3125 -0.46875 C 7.53125 -0.0507812 6.648438 0.15625 5.671875 0.15625 Z M 5.671875 -1.6875 C 6.234375 -1.6875 6.738281 -1.816406 7.1875 -2.078125 C 7.632812 -2.335938 7.984375 -2.691406 8.234375 -3.140625 C 8.492188 -3.597656 8.625 -4.117188 8.625 -4.703125 C 8.625 -5.285156 8.492188 -5.804688 8.234375 -6.265625 C 7.984375 -6.722656 7.632812 -7.078125 7.1875 -7.328125 C 6.738281 -7.585938 6.234375 -7.71875 5.671875 -7.71875 C 5.117188 -7.71875 4.617188 -7.585938 4.171875 -7.328125 C 3.722656 -7.078125 3.367188 -6.722656 3.109375 -6.265625 C 2.859375 -5.804688 2.734375 -5.285156 2.734375 -4.703125 C 2.734375 -4.117188 2.859375 -3.597656 3.109375 -3.140625 C 3.367188 -2.691406 3.722656 -2.335938 4.171875 -2.078125 C 4.617188 -1.816406 5.117188 -1.6875 5.671875 -1.6875 Z M 5.671875 -1.6875 "/></g></g></g><g fill="#000000" fill-opacity="1"><g transform="translate(234.700888, 191.496863)"><g><path d="M 4.203125 0.15625 C 3.460938 0.15625 2.742188 0.0546875 2.046875 -0.140625 C 1.359375 -0.335938 0.800781 -0.597656 0.375 -0.921875 L 1.109375 -2.5625 C 1.515625 -2.269531 1.992188 -2.035156 2.546875 -1.859375 C 3.109375 -1.679688 3.664062 -1.59375 4.21875 -1.59375 C 4.84375 -1.59375 5.300781 -1.679688 5.59375 -1.859375 C 5.894531 -2.046875 6.046875 -2.289062 6.046875 -2.59375 C 6.046875 -2.820312 5.957031 -3.007812 5.78125 -3.15625 C 5.601562 -3.300781 5.375 -3.414062 5.09375 -3.5 C 4.820312 -3.59375 4.457031 -3.695312 4 -3.8125 C 3.28125 -3.976562 2.691406 -4.144531 2.234375 -4.3125 C 1.773438 -4.488281 1.378906 -4.765625 1.046875 -5.140625 C 0.722656 -5.515625 0.5625 -6.015625 0.5625 -6.640625 C 0.5625 -7.191406 0.707031 -7.6875 1 -8.125 C 1.300781 -8.570312 1.75 -8.925781 2.34375 -9.1875 C 2.9375 -9.445312 3.664062 -9.578125 4.53125 -9.578125 C 5.132812 -9.578125 5.722656 -9.503906 6.296875 -9.359375 C 6.867188 -9.210938 7.367188 -9.007812 7.796875 -8.75 L 7.125 -7.09375 C 6.257812 -7.582031 5.390625 -7.828125 4.515625 -7.828125 C 3.910156 -7.828125 3.460938 -7.726562 3.171875 -7.53125 C 2.878906 -7.332031 2.734375 -7.070312 2.734375 -6.75 C 2.734375 -6.425781 2.898438 -6.1875 3.234375 -6.03125 C 3.566406 -5.875 4.082031 -5.71875 4.78125 -5.5625 C 5.5 -5.394531 6.082031 -5.222656 6.53125 -5.046875 C 6.988281 -4.878906 7.378906 -4.613281 7.703125 -4.25 C 8.035156 -3.882812 8.203125 -3.390625 8.203125 -2.765625 C 8.203125 -2.222656 8.050781 -1.726562 7.75 -1.28125 C 7.457031 -0.84375 7.007812 -0.492188 6.40625 -0.234375 C 5.800781 0.0234375 5.066406 0.15625 4.203125 0.15625 Z M 4.203125 0.15625 "/></g></g></g><g fill="#000000" fill-opacity="1"><g transform="translate(247.93298, 191.496863)"><g><path d="M 9.75 -9.421875 L 9.75 0 L 7.578125 0 L 7.578125 -3.859375 L 3.296875 -3.859375 L 3.296875 0 L 1.109375 0 L 1.109375 -9.421875 L 3.296875 -9.421875 L 3.296875 -5.703125 L 7.578125 -5.703125 L 7.578125 -9.421875 Z M 9.75 -9.421875 "/></g></g></g><g fill="#000000" fill-opacity="1"><g transform="translate(263.451073, 191.496863)"><g><path d="M 8.40625 -1.75 L 8.40625 0 L 1.109375 0 L 1.109375 -9.421875 L 8.234375 -9.421875 L 8.234375 -7.671875 L 3.28125 -7.671875 L 3.28125 -5.625 L 7.65625 -5.625 L 7.65625 -3.921875 L 3.28125 -3.921875 L 3.28125 -1.75 Z M 8.40625 -1.75 "/></g></g></g><g fill="#000000" fill-opacity="1"><g transform="translate(277.126918, 191.496863)"><g><path d="M 7.109375 0 L 5.296875 -2.625 L 3.296875 -2.625 L 3.296875 0 L 1.109375 0 L 1.109375 -9.421875 L 5.1875 -9.421875 C 6.019531 -9.421875 6.742188 -9.28125 7.359375 -9 C 7.972656 -8.71875 8.445312 -8.320312 8.78125 -7.8125 C 9.113281 -7.300781 9.28125 -6.695312 9.28125 -6 C 9.28125 -5.300781 9.113281 -4.695312 8.78125 -4.1875 C 8.445312 -3.6875 7.96875 -3.300781 7.34375 -3.03125 L 9.453125 0 Z M 7.078125 -6 C 7.078125 -6.53125 6.90625 -6.9375 6.5625 -7.21875 C 6.21875 -7.5 5.722656 -7.640625 5.078125 -7.640625 L 3.296875 -7.640625 L 3.296875 -4.359375 L 5.078125 -4.359375 C 5.722656 -4.359375 6.21875 -4.5 6.5625 -4.78125 C 6.90625 -5.070312 7.078125 -5.476562 7.078125 -6 Z M 7.078125 -6 "/></g></g></g></g></g><g fill="#000000" fill-opacity="1" style="visibility: hidden;"><g transform="translate(192.745499, 191.496863)"><g/></g></g><g fill="#000000" fill-opacity="1" style="visibility: hidden;"><g transform="translate(291.66575, 191.496863)"><g/></g></g><g><g fill="#000000" fill-opacity="1"><g transform="translate(47.910775, 266.489954)"><g><path d="M 3.765625 -7 C 4.648438 -7 5.347656 -6.785156 5.859375 -6.359375 C 6.367188 -5.929688 6.625 -5.34375 6.625 -4.59375 C 6.625 -3.851562 6.367188 -3.269531 5.859375 -2.84375 C 5.347656 -2.414062 4.648438 -2.203125 3.765625 -2.203125 L 1.875 -2.203125 L 1.875 0 L 1.140625 0 L 1.140625 -7 Z M 3.734375 -2.859375 C 4.429688 -2.859375 4.960938 -3.007812 5.328125 -3.3125 C 5.691406 -3.613281 5.875 -4.039062 5.875 -4.59375 C 5.875 -5.164062 5.691406 -5.601562 5.328125 -5.90625 C 4.960938 -6.207031 4.429688 -6.359375 3.734375 -6.359375 L 1.875 -6.359375 L 1.875 -2.859375 Z M 3.734375 -2.859375 "/></g></g></g><g fill="#000000" fill-opacity="1"><g transform="translate(62.05793, 266.489954)"><g><path d="M 3.0625 0.0625 C 2.550781 0.0625 2.054688 -0.0195312 1.578125 -0.1875 C 1.097656 -0.351562 0.726562 -0.570312 0.46875 -0.84375 L 0.765625 -1.421875 C 1.015625 -1.171875 1.347656 -0.960938 1.765625 -0.796875 C 2.191406 -0.640625 2.625 -0.5625 3.0625 -0.5625 C 3.695312 -0.5625 4.171875 -0.675781 4.484375 -0.90625 C 4.796875 -1.144531 4.953125 -1.445312 4.953125 -1.8125 C 4.953125 -2.09375 4.863281 -2.316406 4.6875 -2.484375 C 4.519531 -2.648438 4.3125 -2.773438 4.0625 -2.859375 C 3.820312 -2.953125 3.484375 -3.050781 3.046875 -3.15625 C 2.515625 -3.289062 2.09375 -3.421875 1.78125 -3.546875 C 1.46875 -3.671875 1.195312 -3.859375 0.96875 -4.109375 C 0.75 -4.359375 0.640625 -4.703125 0.640625 -5.140625 C 0.640625 -5.492188 0.734375 -5.816406 0.921875 -6.109375 C 1.109375 -6.398438 1.394531 -6.628906 1.78125 -6.796875 C 2.164062 -6.972656 2.644531 -7.0625 3.21875 -7.0625 C 3.613281 -7.0625 4.003906 -7.003906 4.390625 -6.890625 C 4.773438 -6.785156 5.109375 -6.632812 5.390625 -6.4375 L 5.140625 -5.84375 C 4.847656 -6.039062 4.535156 -6.1875 4.203125 -6.28125 C 3.867188 -6.382812 3.539062 -6.4375 3.21875 -6.4375 C 2.601562 -6.4375 2.140625 -6.316406 1.828125 -6.078125 C 1.523438 -5.835938 1.375 -5.53125 1.375 -5.15625 C 1.375 -4.875 1.457031 -4.648438 1.625 -4.484375 C 1.789062 -4.316406 2.003906 -4.1875 2.265625 -4.09375 C 2.523438 -4 2.867188 -3.898438 3.296875 -3.796875 C 3.804688 -3.671875 4.21875 -3.546875 4.53125 -3.421875 C 4.851562 -3.296875 5.125 -3.109375 5.34375 -2.859375 C 5.570312 -2.609375 5.6875 -2.269531 5.6875 -1.84375 C 5.6875 -1.488281 5.585938 -1.164062 5.390625 -0.875 C 5.203125 -0.59375 4.910156 -0.363281 4.515625 -0.1875 C 4.128906 -0.0195312 3.644531 0.0625 3.0625 0.0625 Z M 3.0625 0.0625 "/></g></g></g><g fill="#000000" fill-opacity="1"><g transform="translate(75.175483, 266.489954)"><g><path d="M 3.546875 -2.421875 L 3.546875 0 L 2.8125 0 L 2.8125 -2.421875 L 0.015625 -7 L 0.796875 -7 L 3.203125 -3.0625 L 5.59375 -7 L 6.34375 -7 Z M 3.546875 -2.421875 "/></g></g></g><g fill="#000000" fill-opacity="1"><g transform="translate(88.492963, 266.489954)"><g><path d="M 4.1875 0.0625 C 3.488281 0.0625 2.859375 -0.0859375 2.296875 -0.390625 C 1.742188 -0.703125 1.304688 -1.128906 0.984375 -1.671875 C 0.671875 -2.210938 0.515625 -2.820312 0.515625 -3.5 C 0.515625 -4.175781 0.671875 -4.785156 0.984375 -5.328125 C 1.304688 -5.867188 1.75 -6.289062 2.3125 -6.59375 C 2.875 -6.90625 3.5 -7.0625 4.1875 -7.0625 C 4.707031 -7.0625 5.1875 -6.972656 5.625 -6.796875 C 6.070312 -6.628906 6.445312 -6.378906 6.75 -6.046875 L 6.28125 -5.5625 C 5.726562 -6.125 5.035156 -6.40625 4.203125 -6.40625 C 3.648438 -6.40625 3.144531 -6.273438 2.6875 -6.015625 C 2.238281 -5.765625 1.882812 -5.414062 1.625 -4.96875 C 1.375 -4.53125 1.25 -4.039062 1.25 -3.5 C 1.25 -2.957031 1.375 -2.460938 1.625 -2.015625 C 1.882812 -1.578125 2.238281 -1.226562 2.6875 -0.96875 C 3.144531 -0.71875 3.648438 -0.59375 4.203125 -0.59375 C 5.046875 -0.59375 5.738281 -0.875 6.28125 -1.4375 L 6.75 -0.96875 C 6.445312 -0.632812 6.070312 -0.378906 5.625 -0.203125 C 5.175781 -0.0234375 4.695312 0.0625 4.1875 0.0625 Z M 4.1875 0.0625 "/></g></g></g><g fill="#000000" fill-opacity="1"><g transform="translate(102.650111, 266.489954)"><g><path d="M 6.984375 -7 L 6.984375 0 L 6.265625 0 L 6.265625 -3.234375 L 1.875 -3.234375 L 1.875 0 L 1.140625 0 L 1.140625 -7 L 1.875 -7 L 1.875 -3.875 L 6.265625 -3.875 L 6.265625 -7 Z M 6.984375 -7 "/></g></g></g><g fill="#000000" fill-opacity="1"><g transform="translate(117.746887, 266.489954)"><g><path d="M 1.140625 -7 L 1.875 -7 L 1.875 0 L 1.140625 0 Z M 1.140625 -7 "/></g></g></g><g fill="#000000" fill-opacity="1"><g transform="translate(127.735684, 266.489954)"><g><path d="M 4.1875 0.0625 C 3.488281 0.0625 2.859375 -0.0859375 2.296875 -0.390625 C 1.742188 -0.703125 1.304688 -1.128906 0.984375 -1.671875 C 0.671875 -2.210938 0.515625 -2.820312 0.515625 -3.5 C 0.515625 -4.175781 0.671875 -4.785156 0.984375 -5.328125 C 1.304688 -5.867188 1.75 -6.289062 2.3125 -6.59375 C 2.875 -6.90625 3.5 -7.0625 4.1875 -7.0625 C 4.707031 -7.0625 5.1875 -6.972656 5.625 -6.796875 C 6.070312 -6.628906 6.445312 -6.378906 6.75 -6.046875 L 6.28125 -5.5625 C 5.726562 -6.125 5.035156 -6.40625 4.203125 -6.40625 C 3.648438 -6.40625 3.144531 -6.273438 2.6875 -6.015625 C 2.238281 -5.765625 1.882812 -5.414062 1.625 -4.96875 C 1.375 -4.53125 1.25 -4.039062 1.25 -3.5 C 1.25 -2.957031 1.375 -2.460938 1.625 -2.015625 C 1.882812 -1.578125 2.238281 -1.226562 2.6875 -0.96875 C 3.144531 -0.71875 3.648438 -0.59375 4.203125 -0.59375 C 5.046875 -0.59375 5.738281 -0.875 6.28125 -1.4375 L 6.75 -0.96875 C 6.445312 -0.632812 6.070312 -0.378906 5.625 -0.203125 C 5.175781 -0.0234375 4.695312 0.0625 4.1875 0.0625 Z M 4.1875 0.0625 "/></g></g></g><g fill="#000000" fill-opacity="1"><g transform="translate(151.481778, 266.489954)"><g><path d="M 8.40625 -7 L 8.40625 0 L 7.703125 0 L 7.703125 -5.59375 L 4.953125 -0.890625 L 4.59375 -0.890625 L 1.84375 -5.5625 L 1.84375 0 L 1.140625 0 L 1.140625 -7 L 1.75 -7 L 4.796875 -1.8125 L 7.796875 -7 Z M 8.40625 -7 "/></g></g></g><g fill="#000000" fill-opacity="1"><g transform="translate(167.997994, 266.489954)"><g><path d="M 6.09375 -0.640625 L 6.09375 0 L 1.140625 0 L 1.140625 -7 L 5.9375 -7 L 5.9375 -6.359375 L 1.875 -6.359375 L 1.875 -3.875 L 5.5 -3.875 L 5.5 -3.234375 L 1.875 -3.234375 L 1.875 -0.640625 Z M 6.09375 -0.640625 "/></g></g></g><g fill="#000000" fill-opacity="1"><g transform="translate(181.655338, 266.489954)"><g><path d="M 1.140625 -7 L 3.984375 -7 C 4.722656 -7 5.375 -6.847656 5.9375 -6.546875 C 6.507812 -6.253906 6.953125 -5.84375 7.265625 -5.3125 C 7.578125 -4.78125 7.734375 -4.175781 7.734375 -3.5 C 7.734375 -2.820312 7.578125 -2.21875 7.265625 -1.6875 C 6.953125 -1.15625 6.507812 -0.738281 5.9375 -0.4375 C 5.375 -0.144531 4.722656 0 3.984375 0 L 1.140625 0 Z M 3.953125 -0.640625 C 4.566406 -0.640625 5.101562 -0.757812 5.5625 -1 C 6.019531 -1.25 6.375 -1.585938 6.625 -2.015625 C 6.882812 -2.441406 7.015625 -2.9375 7.015625 -3.5 C 7.015625 -4.0625 6.882812 -4.554688 6.625 -4.984375 C 6.375 -5.410156 6.019531 -5.742188 5.5625 -5.984375 C 5.101562 -6.234375 4.566406 -6.359375 3.953125 -6.359375 L 1.875 -6.359375 L 1.875 -0.640625 Z M 3.953125 -0.640625 "/></g></g></g><g fill="#000000" fill-opacity="1"><g transform="translate(196.882056, 266.489954)"><g><path d="M 1.140625 -7 L 1.875 -7 L 1.875 0 L 1.140625 0 Z M 1.140625 -7 "/></g></g></g><g fill="#000000" fill-opacity="1"><g transform="translate(206.870847, 266.489954)"><g><path d="M 3.953125 0.0625 C 3.046875 0.0625 2.335938 -0.195312 1.828125 -0.71875 C 1.328125 -1.238281 1.078125 -1.992188 1.078125 -2.984375 L 1.078125 -7 L 1.8125 -7 L 1.8125 -3.015625 C 1.8125 -2.203125 1.992188 -1.59375 2.359375 -1.1875 C 2.734375 -0.789062 3.265625 -0.59375 3.953125 -0.59375 C 4.660156 -0.59375 5.195312 -0.789062 5.5625 -1.1875 C 5.925781 -1.59375 6.109375 -2.203125 6.109375 -3.015625 L 6.109375 -7 L 6.828125 -7 L 6.828125 -2.984375 C 6.828125 -1.992188 6.570312 -1.238281 6.0625 -0.71875 C 5.5625 -0.195312 4.859375 0.0625 3.953125 0.0625 Z M 3.953125 0.0625 "/></g></g></g><g fill="#000000" fill-opacity="1"><g transform="translate(221.757698, 266.489954)"><g><path d="M 8.40625 -7 L 8.40625 0 L 7.703125 0 L 7.703125 -5.59375 L 4.953125 -0.890625 L 4.59375 -0.890625 L 1.84375 -5.5625 L 1.84375 0 L 1.140625 0 L 1.140625 -7 L 1.75 -7 L 4.796875 -1.8125 L 7.796875 -7 Z M 8.40625 -7 "/></g></g></g><g fill="#000000" fill-opacity="1"><g transform="translate(238.273914, 266.489954)"><g><path d="M 1.140625 -7.421875 L 1.796875 -7.421875 L 1.796875 1.9375 L 1.140625 1.9375 Z M 1.140625 -7.421875 "/></g></g></g><g fill="#000000" fill-opacity="1"><g transform="translate(248.192736, 266.489954)"><g><path d="M 3.0625 0.0625 C 2.550781 0.0625 2.054688 -0.0195312 1.578125 -0.1875 C 1.097656 -0.351562 0.726562 -0.570312 0.46875 -0.84375 L 0.765625 -1.421875 C 1.015625 -1.171875 1.347656 -0.960938 1.765625 -0.796875 C 2.191406 -0.640625 2.625 -0.5625 3.0625 -0.5625 C 3.695312 -0.5625 4.171875 -0.675781 4.484375 -0.90625 C 4.796875 -1.144531 4.953125 -1.445312 4.953125 -1.8125 C 4.953125 -2.09375 4.863281 -2.316406 4.6875 -2.484375 C 4.519531 -2.648438 4.3125 -2.773438 4.0625 -2.859375 C 3.820312 -2.953125 3.484375 -3.050781 3.046875 -3.15625 C 2.515625 -3.289062 2.09375 -3.421875 1.78125 -3.546875 C 1.46875 -3.671875 1.195312 -3.859375 0.96875 -4.109375 C 0.75 -4.359375 0.640625 -4.703125 0.640625 -5.140625 C 0.640625 -5.492188 0.734375 -5.816406 0.921875 -6.109375 C 1.109375 -6.398438 1.394531 -6.628906 1.78125 -6.796875 C 2.164062 -6.972656 2.644531 -7.0625 3.21875 -7.0625 C 3.613281 -7.0625 4.003906 -7.003906 4.390625 -6.890625 C 4.773438 -6.785156 5.109375 -6.632812 5.390625 -6.4375 L 5.140625 -5.84375 C 4.847656 -6.039062 4.535156 -6.1875 4.203125 -6.28125 C 3.867188 -6.382812 3.539062 -6.4375 3.21875 -6.4375 C 2.601562 -6.4375 2.140625 -6.316406 1.828125 -6.078125 C 1.523438 -5.835938 1.375 -5.53125 1.375 -5.15625 C 1.375 -4.875 1.457031 -4.648438 1.625 -4.484375 C 1.789062 -4.316406 2.003906 -4.1875 2.265625 -4.09375 C 2.523438 -4 2.867188 -3.898438 3.296875 -3.796875 C 3.804688 -3.671875 4.21875 -3.546875 4.53125 -3.421875 C 4.851562 -3.296875 5.125 -3.109375 5.34375 -2.859375 C 5.570312 -2.609375 5.6875 -2.269531 5.6875 -1.84375 C 5.6875 -1.488281 5.585938 -1.164062 5.390625 -0.875 C 5.203125 -0.59375 4.910156 -0.363281 4.515625 -0.1875 C 4.128906 -0.0195312 3.644531 0.0625 3.0625 0.0625 Z M 3.0625 0.0625 "/></g></g></g><g fill="#000000" fill-opacity="1"><g transform="translate(261.310297, 266.489954)"><g><path d="M 6.984375 -7 L 6.984375 0 L 6.265625 0 L 6.265625 -3.234375 L 1.875 -3.234375 L 1.875 0 L 1.140625 0 L 1.140625 -7 L 1.875 -7 L 1.875 -3.875 L 6.265625 -3.875 L 6.265625 -7 Z M 6.984375 -7 "/></g></g></g><g fill="#000000" fill-opacity="1"><g transform="translate(276.407067, 266.489954)"><g><path d="M 5.53125 -1.875 L 1.625 -1.875 L 0.796875 0 L 0.015625 0 L 3.21875 -7 L 3.953125 -7 L 7.15625 0 L 6.375 0 Z M 5.265625 -2.46875 L 3.578125 -6.234375 L 1.90625 -2.46875 Z M 5.265625 -2.46875 "/></g></g></g><g fill="#000000" fill-opacity="1"><g transform="translate(290.544227, 266.489954)"><g><path d="M 8.40625 -7 L 8.40625 0 L 7.703125 0 L 7.703125 -5.59375 L 4.953125 -0.890625 L 4.59375 -0.890625 L 1.84375 -5.5625 L 1.84375 0 L 1.140625 0 L 1.140625 -7 L 1.75 -7 L 4.796875 -1.8125 L 7.796875 -7 Z M 8.40625 -7 "/></g></g></g><g fill="#000000" fill-opacity="1"><g transform="translate(307.060454, 266.489954)"><g><path d="M 5.53125 -1.875 L 1.625 -1.875 L 0.796875 0 L 0.015625 0 L 3.21875 -7 L 3.953125 -7 L 7.15625 0 L 6.375 0 Z M 5.265625 -2.46875 L 3.578125 -6.234375 L 1.90625 -2.46875 Z M 5.265625 -2.46875 "/></g></g></g><g fill="#000000" fill-opacity="1"><g transform="translate(321.197614, 266.489954)"><g><path d="M 6.984375 -7 L 6.984375 0 L 6.375 0 L 1.875 -5.6875 L 1.875 0 L 1.140625 0 L 1.140625 -7 L 1.75 -7 L 6.265625 -1.3125 L 6.265625 -7 Z M 6.984375 -7 "/></g></g></g></g><g fill="#000000" fill-opacity="1"><g transform="translate(141.892832, 266.489954)"><g/></g></g><g><g fill="#000000" fill-opacity="1"><g transform="translate(47.534151, 287.706599)"><g><path d="M 2.703125 -4.90625 C 3.140625 -4.90625 3.515625 -4.832031 3.828125 -4.6875 C 4.148438 -4.539062 4.394531 -4.332031 4.5625 -4.0625 C 4.738281 -3.800781 4.828125 -3.488281 4.828125 -3.125 C 4.828125 -2.757812 4.738281 -2.441406 4.5625 -2.171875 C 4.394531 -1.910156 4.148438 -1.707031 3.828125 -1.5625 C 3.515625 -1.414062 3.140625 -1.34375 2.703125 -1.34375 L 1.71875 -1.34375 L 1.71875 0 L 0.578125 0 L 0.578125 -4.90625 Z M 2.640625 -2.28125 C 2.984375 -2.28125 3.242188 -2.351562 3.421875 -2.5 C 3.597656 -2.644531 3.6875 -2.851562 3.6875 -3.125 C 3.6875 -3.394531 3.597656 -3.601562 3.421875 -3.75 C 3.242188 -3.894531 2.984375 -3.96875 2.640625 -3.96875 L 1.71875 -3.96875 L 1.71875 -2.28125 Z M 2.640625 -2.28125 "/></g></g></g><g fill="#000000" fill-opacity="1"><g transform="translate(55.080208, 287.706599)"><g><path d="M 2.1875 0.078125 C 1.800781 0.078125 1.425781 0.0234375 1.0625 -0.078125 C 0.707031 -0.179688 0.421875 -0.316406 0.203125 -0.484375 L 0.578125 -1.34375 C 0.785156 -1.1875 1.035156 -1.0625 1.328125 -0.96875 C 1.617188 -0.875 1.910156 -0.828125 2.203125 -0.828125 C 2.523438 -0.828125 2.757812 -0.875 2.90625 -0.96875 C 3.0625 -1.0625 3.140625 -1.1875 3.140625 -1.34375 C 3.140625 -1.46875 3.09375 -1.566406 3 -1.640625 C 2.914062 -1.710938 2.800781 -1.769531 2.65625 -1.8125 C 2.507812 -1.863281 2.316406 -1.921875 2.078125 -1.984375 C 1.703125 -2.066406 1.394531 -2.148438 1.15625 -2.234375 C 0.925781 -2.328125 0.722656 -2.472656 0.546875 -2.671875 C 0.378906 -2.867188 0.296875 -3.128906 0.296875 -3.453125 C 0.296875 -3.742188 0.367188 -4.003906 0.515625 -4.234375 C 0.671875 -4.460938 0.90625 -4.644531 1.21875 -4.78125 C 1.53125 -4.914062 1.910156 -4.984375 2.359375 -4.984375 C 2.671875 -4.984375 2.972656 -4.945312 3.265625 -4.875 C 3.566406 -4.800781 3.832031 -4.691406 4.0625 -4.546875 L 3.703125 -3.6875 C 3.253906 -3.945312 2.804688 -4.078125 2.359375 -4.078125 C 2.035156 -4.078125 1.796875 -4.023438 1.640625 -3.921875 C 1.492188 -3.816406 1.421875 -3.679688 1.421875 -3.515625 C 1.421875 -3.347656 1.507812 -3.222656 1.6875 -3.140625 C 1.863281 -3.054688 2.128906 -2.972656 2.484375 -2.890625 C 2.859375 -2.804688 3.164062 -2.71875 3.40625 -2.625 C 3.644531 -2.539062 3.847656 -2.398438 4.015625 -2.203125 C 4.179688 -2.015625 4.265625 -1.757812 4.265625 -1.4375 C 4.265625 -1.15625 4.1875 -0.898438 4.03125 -0.671875 C 3.875 -0.441406 3.640625 -0.257812 3.328125 -0.125 C 3.015625 0.0078125 2.632812 0.078125 2.1875 0.078125 Z M 2.1875 0.078125 "/></g></g></g><g fill="#000000" fill-opacity="1"><g transform="translate(61.968259, 287.706599)"><g><path d="M 2.9375 -1.734375 L 2.9375 0 L 1.796875 0 L 1.796875 -1.75 L -0.09375 -4.90625 L 1.109375 -4.90625 L 2.421875 -2.71875 L 3.71875 -4.90625 L 4.84375 -4.90625 Z M 2.9375 -1.734375 "/></g></g></g><g fill="#000000" fill-opacity="1"><g transform="translate(69.122317, 287.706599)"><g><path d="M 2.921875 0.078125 C 2.421875 0.078125 1.96875 -0.0234375 1.5625 -0.234375 C 1.164062 -0.453125 0.847656 -0.753906 0.609375 -1.140625 C 0.378906 -1.523438 0.265625 -1.960938 0.265625 -2.453125 C 0.265625 -2.929688 0.378906 -3.363281 0.609375 -3.75 C 0.847656 -4.132812 1.164062 -4.4375 1.5625 -4.65625 C 1.96875 -4.875 2.425781 -4.984375 2.9375 -4.984375 C 3.351562 -4.984375 3.734375 -4.90625 4.078125 -4.75 C 4.421875 -4.601562 4.710938 -4.390625 4.953125 -4.109375 L 4.21875 -3.4375 C 3.882812 -3.820312 3.472656 -4.015625 2.984375 -4.015625 C 2.679688 -4.015625 2.410156 -3.945312 2.171875 -3.8125 C 1.929688 -3.6875 1.742188 -3.503906 1.609375 -3.265625 C 1.484375 -3.023438 1.421875 -2.753906 1.421875 -2.453125 C 1.421875 -2.148438 1.484375 -1.878906 1.609375 -1.640625 C 1.742188 -1.398438 1.929688 -1.210938 2.171875 -1.078125 C 2.410156 -0.941406 2.679688 -0.875 2.984375 -0.875 C 3.472656 -0.875 3.882812 -1.070312 4.21875 -1.46875 L 4.953125 -0.796875 C 4.710938 -0.503906 4.421875 -0.285156 4.078125 -0.140625 C 3.734375 0.00390625 3.347656 0.078125 2.921875 0.078125 Z M 2.921875 0.078125 "/></g></g></g><g fill="#000000" fill-opacity="1"><g transform="translate(76.675379, 287.706599)"><g><path d="M 5.078125 -4.90625 L 5.078125 0 L 3.9375 0 L 3.9375 -2.015625 L 1.71875 -2.015625 L 1.71875 0 L 0.578125 0 L 0.578125 -4.90625 L 1.71875 -4.90625 L 1.71875 -2.96875 L 3.9375 -2.96875 L 3.9375 -4.90625 Z M 5.078125 -4.90625 "/></g></g></g><g fill="#000000" fill-opacity="1"><g transform="translate(84.753448, 287.706599)"><g><path d="M 0.578125 -4.90625 L 1.71875 -4.90625 L 1.71875 0 L 0.578125 0 Z M 0.578125 -4.90625 "/></g></g></g><g fill="#000000" fill-opacity="1"><g transform="translate(89.471483, 287.706599)"><g><path d="M 2.921875 0.078125 C 2.421875 0.078125 1.96875 -0.0234375 1.5625 -0.234375 C 1.164062 -0.453125 0.847656 -0.753906 0.609375 -1.140625 C 0.378906 -1.523438 0.265625 -1.960938 0.265625 -2.453125 C 0.265625 -2.929688 0.378906 -3.363281 0.609375 -3.75 C 0.847656 -4.132812 1.164062 -4.4375 1.5625 -4.65625 C 1.96875 -4.875 2.425781 -4.984375 2.9375 -4.984375 C 3.351562 -4.984375 3.734375 -4.90625 4.078125 -4.75 C 4.421875 -4.601562 4.710938 -4.390625 4.953125 -4.109375 L 4.21875 -3.4375 C 3.882812 -3.820312 3.472656 -4.015625 2.984375 -4.015625 C 2.679688 -4.015625 2.410156 -3.945312 2.171875 -3.8125 C 1.929688 -3.6875 1.742188 -3.503906 1.609375 -3.265625 C 1.484375 -3.023438 1.421875 -2.753906 1.421875 -2.453125 C 1.421875 -2.148438 1.484375 -1.878906 1.609375 -1.640625 C 1.742188 -1.398438 1.929688 -1.210938 2.171875 -1.078125 C 2.410156 -0.941406 2.679688 -0.875 2.984375 -0.875 C 3.472656 -0.875 3.882812 -1.070312 4.21875 -1.46875 L 4.953125 -0.796875 C 4.710938 -0.503906 4.421875 -0.285156 4.078125 -0.140625 C 3.734375 0.00390625 3.347656 0.078125 2.921875 0.078125 Z M 2.921875 0.078125 "/></g></g></g><g fill="#000000" fill-opacity="1"><g transform="translate(101.427575, 287.706599)"><g><path d="M 3.703125 0 L 2.765625 -1.359375 L 1.71875 -1.359375 L 1.71875 0 L 0.578125 0 L 0.578125 -4.90625 L 2.703125 -4.90625 C 3.140625 -4.90625 3.515625 -4.832031 3.828125 -4.6875 C 4.148438 -4.539062 4.394531 -4.332031 4.5625 -4.0625 C 4.738281 -3.800781 4.828125 -3.488281 4.828125 -3.125 C 4.828125 -2.757812 4.738281 -2.441406 4.5625 -2.171875 C 4.394531 -1.910156 4.148438 -1.710938 3.828125 -1.578125 L 4.921875 0 Z M 3.6875 -3.125 C 3.6875 -3.394531 3.597656 -3.601562 3.421875 -3.75 C 3.242188 -3.894531 2.984375 -3.96875 2.640625 -3.96875 L 1.71875 -3.96875 L 1.71875 -2.265625 L 2.640625 -2.265625 C 2.984375 -2.265625 3.242188 -2.335938 3.421875 -2.484375 C 3.597656 -2.640625 3.6875 -2.851562 3.6875 -3.125 Z M 3.6875 -3.125 "/></g></g></g><g fill="#000000" fill-opacity="1"><g transform="translate(108.994638, 287.706599)"><g><path d="M 4.375 -0.90625 L 4.375 0 L 0.578125 0 L 0.578125 -4.90625 L 4.28125 -4.90625 L 4.28125 -3.984375 L 1.703125 -3.984375 L 1.703125 -2.921875 L 3.984375 -2.921875 L 3.984375 -2.046875 L 1.703125 -2.046875 L 1.703125 -0.90625 Z M 4.375 -0.90625 "/></g></g></g><g fill="#000000" fill-opacity="1"><g transform="translate(116.113697, 287.706599)"><g><path d="M 3.8125 -1.046875 L 1.53125 -1.046875 L 1.09375 0 L -0.0625 0 L 2.125 -4.90625 L 3.234375 -4.90625 L 5.4375 0 L 4.234375 0 Z M 3.453125 -1.90625 L 2.671875 -3.78125 L 1.890625 -1.90625 Z M 3.453125 -1.90625 "/></g></g></g><g fill="#000000" fill-opacity="1"><g transform="translate(123.897753, 287.706599)"><g><path d="M 0.578125 -4.90625 L 2.8125 -4.90625 C 3.34375 -4.90625 3.8125 -4.800781 4.21875 -4.59375 C 4.625 -4.394531 4.941406 -4.109375 5.171875 -3.734375 C 5.398438 -3.367188 5.515625 -2.941406 5.515625 -2.453125 C 5.515625 -1.960938 5.398438 -1.53125 5.171875 -1.15625 C 4.941406 -0.789062 4.625 -0.503906 4.21875 -0.296875 C 3.8125 -0.0976562 3.34375 0 2.8125 0 L 0.578125 0 Z M 2.75 -0.9375 C 3.238281 -0.9375 3.628906 -1.070312 3.921875 -1.34375 C 4.210938 -1.613281 4.359375 -1.984375 4.359375 -2.453125 C 4.359375 -2.921875 4.210938 -3.289062 3.921875 -3.5625 C 3.628906 -3.832031 3.238281 -3.96875 2.75 -3.96875 L 1.71875 -3.96875 L 1.71875 -0.9375 Z M 2.75 -0.9375 "/></g></g></g><g fill="#000000" fill-opacity="1"><g transform="translate(132.101812, 287.706599)"><g><path d="M 0.578125 -4.90625 L 1.71875 -4.90625 L 1.71875 0 L 0.578125 0 Z M 0.578125 -4.90625 "/></g></g></g><g fill="#000000" fill-opacity="1"><g transform="translate(136.819851, 287.706599)"><g><path d="M 5.078125 -4.90625 L 5.078125 0 L 4.140625 0 L 1.703125 -2.96875 L 1.703125 0 L 0.578125 0 L 0.578125 -4.90625 L 1.515625 -4.90625 L 3.953125 -1.921875 L 3.953125 -4.90625 Z M 5.078125 -4.90625 "/></g></g></g><g fill="#000000" fill-opacity="1"><g transform="translate(144.897925, 287.706599)"><g><path d="M 3.890625 -2.53125 L 4.921875 -2.53125 L 4.921875 -0.53125 C 4.660156 -0.332031 4.351562 -0.179688 4 -0.078125 C 3.65625 0.0234375 3.304688 0.078125 2.953125 0.078125 C 2.441406 0.078125 1.984375 -0.0234375 1.578125 -0.234375 C 1.171875 -0.453125 0.847656 -0.753906 0.609375 -1.140625 C 0.378906 -1.523438 0.265625 -1.960938 0.265625 -2.453125 C 0.265625 -2.929688 0.378906 -3.363281 0.609375 -3.75 C 0.847656 -4.132812 1.171875 -4.4375 1.578125 -4.65625 C 1.992188 -4.875 2.457031 -4.984375 2.96875 -4.984375 C 3.394531 -4.984375 3.78125 -4.910156 4.125 -4.765625 C 4.476562 -4.617188 4.773438 -4.410156 5.015625 -4.140625 L 4.296875 -3.46875 C 3.941406 -3.832031 3.519531 -4.015625 3.03125 -4.015625 C 2.71875 -4.015625 2.4375 -3.945312 2.1875 -3.8125 C 1.945312 -3.6875 1.757812 -3.503906 1.625 -3.265625 C 1.488281 -3.023438 1.421875 -2.753906 1.421875 -2.453125 C 1.421875 -2.148438 1.488281 -1.878906 1.625 -1.640625 C 1.757812 -1.398438 1.945312 -1.210938 2.1875 -1.078125 C 2.425781 -0.941406 2.703125 -0.875 3.015625 -0.875 C 3.335938 -0.875 3.628906 -0.945312 3.890625 -1.09375 Z M 3.890625 -2.53125 "/></g></g></g><g fill="#000000" fill-opacity="1"><g transform="translate(152.71698, 287.706599)"><g><path d="M 2.1875 0.078125 C 1.800781 0.078125 1.425781 0.0234375 1.0625 -0.078125 C 0.707031 -0.179688 0.421875 -0.316406 0.203125 -0.484375 L 0.578125 -1.34375 C 0.785156 -1.1875 1.035156 -1.0625 1.328125 -0.96875 C 1.617188 -0.875 1.910156 -0.828125 2.203125 -0.828125 C 2.523438 -0.828125 2.757812 -0.875 2.90625 -0.96875 C 3.0625 -1.0625 3.140625 -1.1875 3.140625 -1.34375 C 3.140625 -1.46875 3.09375 -1.566406 3 -1.640625 C 2.914062 -1.710938 2.800781 -1.769531 2.65625 -1.8125 C 2.507812 -1.863281 2.316406 -1.921875 2.078125 -1.984375 C 1.703125 -2.066406 1.394531 -2.148438 1.15625 -2.234375 C 0.925781 -2.328125 0.722656 -2.472656 0.546875 -2.671875 C 0.378906 -2.867188 0.296875 -3.128906 0.296875 -3.453125 C 0.296875 -3.742188 0.367188 -4.003906 0.515625 -4.234375 C 0.671875 -4.460938 0.90625 -4.644531 1.21875 -4.78125 C 1.53125 -4.914062 1.910156 -4.984375 2.359375 -4.984375 C 2.671875 -4.984375 2.972656 -4.945312 3.265625 -4.875 C 3.566406 -4.800781 3.832031 -4.691406 4.0625 -4.546875 L 3.703125 -3.6875 C 3.253906 -3.945312 2.804688 -4.078125 2.359375 -4.078125 C 2.035156 -4.078125 1.796875 -4.023438 1.640625 -3.921875 C 1.492188 -3.816406 1.421875 -3.679688 1.421875 -3.515625 C 1.421875 -3.347656 1.507812 -3.222656 1.6875 -3.140625 C 1.863281 -3.054688 2.128906 -2.972656 2.484375 -2.890625 C 2.859375 -2.804688 3.164062 -2.71875 3.40625 -2.625 C 3.644531 -2.539062 3.847656 -2.398438 4.015625 -2.203125 C 4.179688 -2.015625 4.265625 -1.757812 4.265625 -1.4375 C 4.265625 -1.15625 4.1875 -0.898438 4.03125 -0.671875 C 3.875 -0.441406 3.640625 -0.257812 3.328125 -0.125 C 3.015625 0.0078125 2.632812 0.078125 2.1875 0.078125 Z M 2.1875 0.078125 "/></g></g></g><g fill="#000000" fill-opacity="1"><g transform="translate(164.008052, 287.706599)"><g><path d="M 7.984375 -4.90625 L 6.390625 0 L 5.171875 0 L 4.09375 -3.3125 L 2.96875 0 L 1.765625 0 L 0.15625 -4.90625 L 1.328125 -4.90625 L 2.4375 -1.453125 L 3.59375 -4.90625 L 4.640625 -4.90625 L 5.765625 -1.421875 L 6.90625 -4.90625 Z M 7.984375 -4.90625 "/></g></g></g><g fill="#000000" fill-opacity="1"><g transform="translate(174.571148, 287.706599)"><g><path d="M 0.578125 -4.90625 L 1.71875 -4.90625 L 1.71875 0 L 0.578125 0 Z M 0.578125 -4.90625 "/></g></g></g><g fill="#000000" fill-opacity="1"><g transform="translate(179.289188, 287.706599)"><g><path d="M 1.59375 -3.96875 L 0.03125 -3.96875 L 0.03125 -4.90625 L 4.296875 -4.90625 L 4.296875 -3.96875 L 2.734375 -3.96875 L 2.734375 0 L 1.59375 0 Z M 1.59375 -3.96875 "/></g></g></g><g fill="#000000" fill-opacity="1"><g transform="translate(186.03724, 287.706599)"><g><path d="M 5.078125 -4.90625 L 5.078125 0 L 3.9375 0 L 3.9375 -2.015625 L 1.71875 -2.015625 L 1.71875 0 L 0.578125 0 L 0.578125 -4.90625 L 1.71875 -4.90625 L 1.71875 -2.96875 L 3.9375 -2.96875 L 3.9375 -4.90625 Z M 5.078125 -4.90625 "/></g></g></g><g fill="#000000" fill-opacity="1"><g transform="translate(198.518347, 287.706599)"><g><path d="M 2.1875 0.078125 C 1.800781 0.078125 1.425781 0.0234375 1.0625 -0.078125 C 0.707031 -0.179688 0.421875 -0.316406 0.203125 -0.484375 L 0.578125 -1.34375 C 0.785156 -1.1875 1.035156 -1.0625 1.328125 -0.96875 C 1.617188 -0.875 1.910156 -0.828125 2.203125 -0.828125 C 2.523438 -0.828125 2.757812 -0.875 2.90625 -0.96875 C 3.0625 -1.0625 3.140625 -1.1875 3.140625 -1.34375 C 3.140625 -1.46875 3.09375 -1.566406 3 -1.640625 C 2.914062 -1.710938 2.800781 -1.769531 2.65625 -1.8125 C 2.507812 -1.863281 2.316406 -1.921875 2.078125 -1.984375 C 1.703125 -2.066406 1.394531 -2.148438 1.15625 -2.234375 C 0.925781 -2.328125 0.722656 -2.472656 0.546875 -2.671875 C 0.378906 -2.867188 0.296875 -3.128906 0.296875 -3.453125 C 0.296875 -3.742188 0.367188 -4.003906 0.515625 -4.234375 C 0.671875 -4.460938 0.90625 -4.644531 1.21875 -4.78125 C 1.53125 -4.914062 1.910156 -4.984375 2.359375 -4.984375 C 2.671875 -4.984375 2.972656 -4.945312 3.265625 -4.875 C 3.566406 -4.800781 3.832031 -4.691406 4.0625 -4.546875 L 3.703125 -3.6875 C 3.253906 -3.945312 2.804688 -4.078125 2.359375 -4.078125 C 2.035156 -4.078125 1.796875 -4.023438 1.640625 -3.921875 C 1.492188 -3.816406 1.421875 -3.679688 1.421875 -3.515625 C 1.421875 -3.347656 1.507812 -3.222656 1.6875 -3.140625 C 1.863281 -3.054688 2.128906 -2.972656 2.484375 -2.890625 C 2.859375 -2.804688 3.164062 -2.71875 3.40625 -2.625 C 3.644531 -2.539062 3.847656 -2.398438 4.015625 -2.203125 C 4.179688 -2.015625 4.265625 -1.757812 4.265625 -1.4375 C 4.265625 -1.15625 4.1875 -0.898438 4.03125 -0.671875 C 3.875 -0.441406 3.640625 -0.257812 3.328125 -0.125 C 3.015625 0.0078125 2.632812 0.078125 2.1875 0.078125 Z M 2.1875 0.078125 "/></g></g></g><g fill="#000000" fill-opacity="1"><g transform="translate(205.406394, 287.706599)"><g><path d="M 2.765625 0.078125 C 2.054688 0.078125 1.503906 -0.113281 1.109375 -0.5 C 0.722656 -0.882812 0.53125 -1.4375 0.53125 -2.15625 L 0.53125 -4.90625 L 1.671875 -4.90625 L 1.671875 -2.203125 C 1.671875 -1.316406 2.035156 -0.875 2.765625 -0.875 C 3.117188 -0.875 3.390625 -0.976562 3.578125 -1.1875 C 3.765625 -1.40625 3.859375 -1.742188 3.859375 -2.203125 L 3.859375 -4.90625 L 4.984375 -4.90625 L 4.984375 -2.15625 C 4.984375 -1.4375 4.785156 -0.882812 4.390625 -0.5 C 4.003906 -0.113281 3.460938 0.078125 2.765625 0.078125 Z M 2.765625 0.078125 "/></g></g></g><g fill="#000000" fill-opacity="1"><g transform="translate(213.344455, 287.706599)"><g><path d="M 3.703125 0 L 2.765625 -1.359375 L 1.71875 -1.359375 L 1.71875 0 L 0.578125 0 L 0.578125 -4.90625 L 2.703125 -4.90625 C 3.140625 -4.90625 3.515625 -4.832031 3.828125 -4.6875 C 4.148438 -4.539062 4.394531 -4.332031 4.5625 -4.0625 C 4.738281 -3.800781 4.828125 -3.488281 4.828125 -3.125 C 4.828125 -2.757812 4.738281 -2.441406 4.5625 -2.171875 C 4.394531 -1.910156 4.148438 -1.710938 3.828125 -1.578125 L 4.921875 0 Z M 3.6875 -3.125 C 3.6875 -3.394531 3.597656 -3.601562 3.421875 -3.75 C 3.242188 -3.894531 2.984375 -3.96875 2.640625 -3.96875 L 1.71875 -3.96875 L 1.71875 -2.265625 L 2.640625 -2.265625 C 2.984375 -2.265625 3.242188 -2.335938 3.421875 -2.484375 C 3.597656 -2.640625 3.6875 -2.851562 3.6875 -3.125 Z M 3.6875 -3.125 "/></g></g></g><g fill="#000000" fill-opacity="1"><g transform="translate(220.911523, 287.706599)"><g><path d="M 3.890625 -2.53125 L 4.921875 -2.53125 L 4.921875 -0.53125 C 4.660156 -0.332031 4.351562 -0.179688 4 -0.078125 C 3.65625 0.0234375 3.304688 0.078125 2.953125 0.078125 C 2.441406 0.078125 1.984375 -0.0234375 1.578125 -0.234375 C 1.171875 -0.453125 0.847656 -0.753906 0.609375 -1.140625 C 0.378906 -1.523438 0.265625 -1.960938 0.265625 -2.453125 C 0.265625 -2.929688 0.378906 -3.363281 0.609375 -3.75 C 0.847656 -4.132812 1.171875 -4.4375 1.578125 -4.65625 C 1.992188 -4.875 2.457031 -4.984375 2.96875 -4.984375 C 3.394531 -4.984375 3.78125 -4.910156 4.125 -4.765625 C 4.476562 -4.617188 4.773438 -4.410156 5.015625 -4.140625 L 4.296875 -3.46875 C 3.941406 -3.832031 3.519531 -4.015625 3.03125 -4.015625 C 2.71875 -4.015625 2.4375 -3.945312 2.1875 -3.8125 C 1.945312 -3.6875 1.757812 -3.503906 1.625 -3.265625 C 1.488281 -3.023438 1.421875 -2.753906 1.421875 -2.453125 C 1.421875 -2.148438 1.488281 -1.878906 1.625 -1.640625 C 1.757812 -1.398438 1.945312 -1.210938 2.1875 -1.078125 C 2.425781 -0.941406 2.703125 -0.875 3.015625 -0.875 C 3.335938 -0.875 3.628906 -0.945312 3.890625 -1.09375 Z M 3.890625 -2.53125 "/></g></g></g><g fill="#000000" fill-opacity="1"><g transform="translate(228.730578, 287.706599)"><g><path d="M 0.578125 -4.90625 L 1.71875 -4.90625 L 1.71875 0 L 0.578125 0 Z M 0.578125 -4.90625 "/></g></g></g><g fill="#000000" fill-opacity="1"><g transform="translate(233.448618, 287.706599)"><g><path d="M 2.921875 0.078125 C 2.421875 0.078125 1.96875 -0.0234375 1.5625 -0.234375 C 1.164062 -0.453125 0.847656 -0.753906 0.609375 -1.140625 C 0.378906 -1.523438 0.265625 -1.960938 0.265625 -2.453125 C 0.265625 -2.929688 0.378906 -3.363281 0.609375 -3.75 C 0.847656 -4.132812 1.164062 -4.4375 1.5625 -4.65625 C 1.96875 -4.875 2.425781 -4.984375 2.9375 -4.984375 C 3.351562 -4.984375 3.734375 -4.90625 4.078125 -4.75 C 4.421875 -4.601562 4.710938 -4.390625 4.953125 -4.109375 L 4.21875 -3.4375 C 3.882812 -3.820312 3.472656 -4.015625 2.984375 -4.015625 C 2.679688 -4.015625 2.410156 -3.945312 2.171875 -3.8125 C 1.929688 -3.6875 1.742188 -3.503906 1.609375 -3.265625 C 1.484375 -3.023438 1.421875 -2.753906 1.421875 -2.453125 C 1.421875 -2.148438 1.484375 -1.878906 1.609375 -1.640625 C 1.742188 -1.398438 1.929688 -1.210938 2.171875 -1.078125 C 2.410156 -0.941406 2.679688 -0.875 2.984375 -0.875 C 3.472656 -0.875 3.882812 -1.070312 4.21875 -1.46875 L 4.953125 -0.796875 C 4.710938 -0.503906 4.421875 -0.285156 4.078125 -0.140625 C 3.734375 0.00390625 3.347656 0.078125 2.921875 0.078125 Z M 2.921875 0.078125 "/></g></g></g><g fill="#000000" fill-opacity="1"><g transform="translate(241.001676, 287.706599)"><g><path d="M 3.8125 -1.046875 L 1.53125 -1.046875 L 1.09375 0 L -0.0625 0 L 2.125 -4.90625 L 3.234375 -4.90625 L 5.4375 0 L 4.234375 0 Z M 3.453125 -1.90625 L 2.671875 -3.78125 L 1.890625 -1.90625 Z M 3.453125 -1.90625 "/></g></g></g><g fill="#000000" fill-opacity="1"><g transform="translate(248.785732, 287.706599)"><g><path d="M 0.578125 -4.90625 L 1.71875 -4.90625 L 1.71875 -0.921875 L 4.171875 -0.921875 L 4.171875 0 L 0.578125 0 Z M 0.578125 -4.90625 "/></g></g></g><g fill="#000000" fill-opacity="1"><g transform="translate(259.838818, 287.706599)"><g><path d="M 2.703125 -4.90625 C 3.140625 -4.90625 3.515625 -4.832031 3.828125 -4.6875 C 4.148438 -4.539062 4.394531 -4.332031 4.5625 -4.0625 C 4.738281 -3.800781 4.828125 -3.488281 4.828125 -3.125 C 4.828125 -2.757812 4.738281 -2.441406 4.5625 -2.171875 C 4.394531 -1.910156 4.148438 -1.707031 3.828125 -1.5625 C 3.515625 -1.414062 3.140625 -1.34375 2.703125 -1.34375 L 1.71875 -1.34375 L 1.71875 0 L 0.578125 0 L 0.578125 -4.90625 Z M 2.640625 -2.28125 C 2.984375 -2.28125 3.242188 -2.351562 3.421875 -2.5 C 3.597656 -2.644531 3.6875 -2.851562 3.6875 -3.125 C 3.6875 -3.394531 3.597656 -3.601562 3.421875 -3.75 C 3.242188 -3.894531 2.984375 -3.96875 2.640625 -3.96875 L 1.71875 -3.96875 L 1.71875 -2.28125 Z M 2.640625 -2.28125 "/></g></g></g><g fill="#000000" fill-opacity="1"><g transform="translate(267.38488, 287.706599)"><g><path d="M 3.703125 0 L 2.765625 -1.359375 L 1.71875 -1.359375 L 1.71875 0 L 0.578125 0 L 0.578125 -4.90625 L 2.703125 -4.90625 C 3.140625 -4.90625 3.515625 -4.832031 3.828125 -4.6875 C 4.148438 -4.539062 4.394531 -4.332031 4.5625 -4.0625 C 4.738281 -3.800781 4.828125 -3.488281 4.828125 -3.125 C 4.828125 -2.757812 4.738281 -2.441406 4.5625 -2.171875 C 4.394531 -1.910156 4.148438 -1.710938 3.828125 -1.578125 L 4.921875 0 Z M 3.6875 -3.125 C 3.6875 -3.394531 3.597656 -3.601562 3.421875 -3.75 C 3.242188 -3.894531 2.984375 -3.96875 2.640625 -3.96875 L 1.71875 -3.96875 L 1.71875 -2.265625 L 2.640625 -2.265625 C 2.984375 -2.265625 3.242188 -2.335938 3.421875 -2.484375 C 3.597656 -2.640625 3.6875 -2.851562 3.6875 -3.125 Z M 3.6875 -3.125 "/></g></g></g><g fill="#000000" fill-opacity="1"><g transform="translate(274.951948, 287.706599)"><g><path d="M 4.375 -0.90625 L 4.375 0 L 0.578125 0 L 0.578125 -4.90625 L 4.28125 -4.90625 L 4.28125 -3.984375 L 1.703125 -3.984375 L 1.703125 -2.921875 L 3.984375 -2.921875 L 3.984375 -2.046875 L 1.703125 -2.046875 L 1.703125 -0.90625 Z M 4.375 -0.90625 "/></g></g></g><g fill="#000000" fill-opacity="1"><g transform="translate(282.071011, 287.706599)"><g><path d="M 2.921875 0.078125 C 2.421875 0.078125 1.96875 -0.0234375 1.5625 -0.234375 C 1.164062 -0.453125 0.847656 -0.753906 0.609375 -1.140625 C 0.378906 -1.523438 0.265625 -1.960938 0.265625 -2.453125 C 0.265625 -2.929688 0.378906 -3.363281 0.609375 -3.75 C 0.847656 -4.132812 1.164062 -4.4375 1.5625 -4.65625 C 1.96875 -4.875 2.425781 -4.984375 2.9375 -4.984375 C 3.351562 -4.984375 3.734375 -4.90625 4.078125 -4.75 C 4.421875 -4.601562 4.710938 -4.390625 4.953125 -4.109375 L 4.21875 -3.4375 C 3.882812 -3.820312 3.472656 -4.015625 2.984375 -4.015625 C 2.679688 -4.015625 2.410156 -3.945312 2.171875 -3.8125 C 1.929688 -3.6875 1.742188 -3.503906 1.609375 -3.265625 C 1.484375 -3.023438 1.421875 -2.753906 1.421875 -2.453125 C 1.421875 -2.148438 1.484375 -1.878906 1.609375 -1.640625 C 1.742188 -1.398438 1.929688 -1.210938 2.171875 -1.078125 C 2.410156 -0.941406 2.679688 -0.875 2.984375 -0.875 C 3.472656 -0.875 3.882812 -1.070312 4.21875 -1.46875 L 4.953125 -0.796875 C 4.710938 -0.503906 4.421875 -0.285156 4.078125 -0.140625 C 3.734375 0.00390625 3.347656 0.078125 2.921875 0.078125 Z M 2.921875 0.078125 "/></g></g></g><g fill="#000000" fill-opacity="1"><g transform="translate(289.624069, 287.706599)"><g><path d="M 0.578125 -4.90625 L 1.71875 -4.90625 L 1.71875 0 L 0.578125 0 Z M 0.578125 -4.90625 "/></g></g></g><g fill="#000000" fill-opacity="1"><g transform="translate(294.342108, 287.706599)"><g><path d="M 2.1875 0.078125 C 1.800781 0.078125 1.425781 0.0234375 1.0625 -0.078125 C 0.707031 -0.179688 0.421875 -0.316406 0.203125 -0.484375 L 0.578125 -1.34375 C 0.785156 -1.1875 1.035156 -1.0625 1.328125 -0.96875 C 1.617188 -0.875 1.910156 -0.828125 2.203125 -0.828125 C 2.523438 -0.828125 2.757812 -0.875 2.90625 -0.96875 C 3.0625 -1.0625 3.140625 -1.1875 3.140625 -1.34375 C 3.140625 -1.46875 3.09375 -1.566406 3 -1.640625 C 2.914062 -1.710938 2.800781 -1.769531 2.65625 -1.8125 C 2.507812 -1.863281 2.316406 -1.921875 2.078125 -1.984375 C 1.703125 -2.066406 1.394531 -2.148438 1.15625 -2.234375 C 0.925781 -2.328125 0.722656 -2.472656 0.546875 -2.671875 C 0.378906 -2.867188 0.296875 -3.128906 0.296875 -3.453125 C 0.296875 -3.742188 0.367188 -4.003906 0.515625 -4.234375 C 0.671875 -4.460938 0.90625 -4.644531 1.21875 -4.78125 C 1.53125 -4.914062 1.910156 -4.984375 2.359375 -4.984375 C 2.671875 -4.984375 2.972656 -4.945312 3.265625 -4.875 C 3.566406 -4.800781 3.832031 -4.691406 4.0625 -4.546875 L 3.703125 -3.6875 C 3.253906 -3.945312 2.804688 -4.078125 2.359375 -4.078125 C 2.035156 -4.078125 1.796875 -4.023438 1.640625 -3.921875 C 1.492188 -3.816406 1.421875 -3.679688 1.421875 -3.515625 C 1.421875 -3.347656 1.507812 -3.222656 1.6875 -3.140625 C 1.863281 -3.054688 2.128906 -2.972656 2.484375 -2.890625 C 2.859375 -2.804688 3.164062 -2.71875 3.40625 -2.625 C 3.644531 -2.539062 3.847656 -2.398438 4.015625 -2.203125 C 4.179688 -2.015625 4.265625 -1.757812 4.265625 -1.4375 C 4.265625 -1.15625 4.1875 -0.898438 4.03125 -0.671875 C 3.875 -0.441406 3.640625 -0.257812 3.328125 -0.125 C 3.015625 0.0078125 2.632812 0.078125 2.1875 0.078125 Z M 2.1875 0.078125 "/></g></g></g><g fill="#000000" fill-opacity="1" style=""><g transform="translate(301.230155, 287.706599)"><g><path d="M 0.578125 -4.90625 L 1.71875 -4.90625 L 1.71875 0 L 0.578125 0 Z M 0.578125 -4.90625 "/></g></g></g><g fill="#000000" fill-opacity="1"><g transform="translate(305.948195, 287.706599)"><g><path d="M 2.953125 0.078125 C 2.441406 0.078125 1.984375 -0.03125 1.578125 -0.25 C 1.171875 -0.46875 0.847656 -0.769531 0.609375 -1.15625 C 0.378906 -1.539062 0.265625 -1.972656 0.265625 -2.453125 C 0.265625 -2.929688 0.378906 -3.363281 0.609375 -3.75 C 0.847656 -4.132812 1.171875 -4.4375 1.578125 -4.65625 C 1.984375 -4.875 2.441406 -4.984375 2.953125 -4.984375 C 3.460938 -4.984375 3.921875 -4.875 4.328125 -4.65625 C 4.734375 -4.4375 5.050781 -4.132812 5.28125 -3.75 C 5.519531 -3.363281 5.640625 -2.929688 5.640625 -2.453125 C 5.640625 -1.972656 5.519531 -1.539062 5.28125 -1.15625 C 5.050781 -0.769531 4.734375 -0.46875 4.328125 -0.25 C 3.921875 -0.03125 3.460938 0.078125 2.953125 0.078125 Z M 2.953125 -0.875 C 3.242188 -0.875 3.503906 -0.941406 3.734375 -1.078125 C 3.972656 -1.210938 4.15625 -1.398438 4.28125 -1.640625 C 4.414062 -1.878906 4.484375 -2.148438 4.484375 -2.453125 C 4.484375 -2.753906 4.414062 -3.023438 4.28125 -3.265625 C 4.15625 -3.503906 3.972656 -3.6875 3.734375 -3.8125 C 3.503906 -3.945312 3.242188 -4.015625 2.953125 -4.015625 C 2.660156 -4.015625 2.394531 -3.945312 2.15625 -3.8125 C 1.925781 -3.6875 1.742188 -3.503906 1.609375 -3.265625 C 1.484375 -3.023438 1.421875 -2.753906 1.421875 -2.453125 C 1.421875 -2.148438 1.484375 -1.878906 1.609375 -1.640625 C 1.742188 -1.398438 1.925781 -1.210938 2.15625 -1.078125 C 2.394531 -0.941406 2.660156 -0.875 2.953125 -0.875 Z M 2.953125 -0.875 "/></g></g></g><g fill="#000000" fill-opacity="1"><g transform="translate(314.278256, 287.706599)"><g><path d="M 5.078125 -4.90625 L 5.078125 0 L 4.140625 0 L 1.703125 -2.96875 L 1.703125 0 L 0.578125 0 L 0.578125 -4.90625 L 1.515625 -4.90625 L 3.953125 -1.921875 L 3.953125 -4.90625 Z M 5.078125 -4.90625 "/></g></g></g></g><g fill="#000000" fill-opacity="1"><g transform="translate(97.024546, 287.706599)"><g/></g></g><g fill="#000000" fill-opacity="1"><g transform="translate(159.605027, 287.706599)"><g/></g></g><g fill="#000000" fill-opacity="1"><g transform="translate(194.115314, 287.706599)"><g/></g></g><g fill="#000000" fill-opacity="1"><g transform="translate(255.435784, 287.706599)"><g/></g></g><g><g fill="#000000" fill-opacity="1"><g transform="translate(85.342084, 309.621101)"><g><path d="M 5.046875 0 L 5.03125 -2.9375 L 3.59375 -0.515625 L 3.078125 -0.515625 L 1.640625 -2.875 L 1.640625 0 L 0.578125 0 L 0.578125 -4.90625 L 1.515625 -4.90625 L 3.359375 -1.859375 L 5.15625 -4.90625 L 6.09375 -4.90625 L 6.109375 0 Z M 5.046875 0 "/></g></g></g><g fill="#000000" fill-opacity="1"><g transform="translate(94.44916, 309.621101)"><g><path d="M 2.953125 0.078125 C 2.441406 0.078125 1.984375 -0.03125 1.578125 -0.25 C 1.171875 -0.46875 0.847656 -0.769531 0.609375 -1.15625 C 0.378906 -1.539062 0.265625 -1.972656 0.265625 -2.453125 C 0.265625 -2.929688 0.378906 -3.363281 0.609375 -3.75 C 0.847656 -4.132812 1.171875 -4.4375 1.578125 -4.65625 C 1.984375 -4.875 2.441406 -4.984375 2.953125 -4.984375 C 3.460938 -4.984375 3.921875 -4.875 4.328125 -4.65625 C 4.734375 -4.4375 5.050781 -4.132812 5.28125 -3.75 C 5.519531 -3.363281 5.640625 -2.929688 5.640625 -2.453125 C 5.640625 -1.972656 5.519531 -1.539062 5.28125 -1.15625 C 5.050781 -0.769531 4.734375 -0.46875 4.328125 -0.25 C 3.921875 -0.03125 3.460938 0.078125 2.953125 0.078125 Z M 2.953125 -0.875 C 3.242188 -0.875 3.503906 -0.941406 3.734375 -1.078125 C 3.972656 -1.210938 4.15625 -1.398438 4.28125 -1.640625 C 4.414062 -1.878906 4.484375 -2.148438 4.484375 -2.453125 C 4.484375 -2.753906 4.414062 -3.023438 4.28125 -3.265625 C 4.15625 -3.503906 3.972656 -3.6875 3.734375 -3.8125 C 3.503906 -3.945312 3.242188 -4.015625 2.953125 -4.015625 C 2.660156 -4.015625 2.394531 -3.945312 2.15625 -3.8125 C 1.925781 -3.6875 1.742188 -3.503906 1.609375 -3.265625 C 1.484375 -3.023438 1.421875 -2.753906 1.421875 -2.453125 C 1.421875 -2.148438 1.484375 -1.878906 1.609375 -1.640625 C 1.742188 -1.398438 1.925781 -1.210938 2.15625 -1.078125 C 2.394531 -0.941406 2.660156 -0.875 2.953125 -0.875 Z M 2.953125 -0.875 "/></g></g></g><g fill="#000000" fill-opacity="1"><g transform="translate(102.779225, 309.621101)"><g><path d="M 5.078125 -4.90625 L 5.078125 0 L 4.140625 0 L 1.703125 -2.96875 L 1.703125 0 L 0.578125 0 L 0.578125 -4.90625 L 1.515625 -4.90625 L 3.953125 -1.921875 L 3.953125 -4.90625 Z M 5.078125 -4.90625 "/></g></g></g><g fill="#000000" fill-opacity="1" style=""><g transform="translate(110.857294, 309.621101)"><g><path d="M 0.578125 -4.90625 L 1.71875 -4.90625 L 1.71875 0 L 0.578125 0 Z M 0.578125 -4.90625 "/></g></g></g><g fill="#000000" fill-opacity="1"><g transform="translate(115.57533, 309.621101)"><g><path d="M 5.875 0.53125 C 5.71875 0.71875 5.523438 0.863281 5.296875 0.96875 C 5.078125 1.070312 4.832031 1.125 4.5625 1.125 C 4.195312 1.125 3.863281 1.046875 3.5625 0.890625 C 3.269531 0.734375 2.9375 0.457031 2.5625 0.0625 C 2.113281 0.0078125 1.71875 -0.128906 1.375 -0.359375 C 1.03125 -0.585938 0.757812 -0.882812 0.5625 -1.25 C 0.363281 -1.613281 0.265625 -2.015625 0.265625 -2.453125 C 0.265625 -2.929688 0.378906 -3.363281 0.609375 -3.75 C 0.847656 -4.132812 1.171875 -4.4375 1.578125 -4.65625 C 1.984375 -4.875 2.441406 -4.984375 2.953125 -4.984375 C 3.460938 -4.984375 3.921875 -4.875 4.328125 -4.65625 C 4.734375 -4.4375 5.050781 -4.132812 5.28125 -3.75 C 5.519531 -3.363281 5.640625 -2.929688 5.640625 -2.453125 C 5.640625 -1.878906 5.476562 -1.378906 5.15625 -0.953125 C 4.832031 -0.523438 4.410156 -0.226562 3.890625 -0.0625 C 4.003906 0.0625 4.113281 0.148438 4.21875 0.203125 C 4.332031 0.253906 4.453125 0.28125 4.578125 0.28125 C 4.878906 0.28125 5.144531 0.160156 5.375 -0.078125 Z M 1.421875 -2.453125 C 1.421875 -2.148438 1.484375 -1.878906 1.609375 -1.640625 C 1.742188 -1.398438 1.925781 -1.210938 2.15625 -1.078125 C 2.394531 -0.941406 2.660156 -0.875 2.953125 -0.875 C 3.242188 -0.875 3.503906 -0.941406 3.734375 -1.078125 C 3.972656 -1.210938 4.15625 -1.398438 4.28125 -1.640625 C 4.414062 -1.878906 4.484375 -2.148438 4.484375 -2.453125 C 4.484375 -2.753906 4.414062 -3.023438 4.28125 -3.265625 C 4.15625 -3.503906 3.972656 -3.6875 3.734375 -3.8125 C 3.503906 -3.945312 3.242188 -4.015625 2.953125 -4.015625 C 2.660156 -4.015625 2.394531 -3.945312 2.15625 -3.8125 C 1.925781 -3.6875 1.742188 -3.503906 1.609375 -3.265625 C 1.484375 -3.023438 1.421875 -2.753906 1.421875 -2.453125 Z M 1.421875 -2.453125 "/></g></g></g><g fill="#000000" fill-opacity="1"><g transform="translate(123.905395, 309.621101)"><g><path d="M 2.765625 0.078125 C 2.054688 0.078125 1.503906 -0.113281 1.109375 -0.5 C 0.722656 -0.882812 0.53125 -1.4375 0.53125 -2.15625 L 0.53125 -4.90625 L 1.671875 -4.90625 L 1.671875 -2.203125 C 1.671875 -1.316406 2.035156 -0.875 2.765625 -0.875 C 3.117188 -0.875 3.390625 -0.976562 3.578125 -1.1875 C 3.765625 -1.40625 3.859375 -1.742188 3.859375 -2.203125 L 3.859375 -4.90625 L 4.984375 -4.90625 L 4.984375 -2.15625 C 4.984375 -1.4375 4.785156 -0.882812 4.390625 -0.5 C 4.003906 -0.113281 3.460938 0.078125 2.765625 0.078125 Z M 2.765625 0.078125 "/></g></g></g><g fill="#000000" fill-opacity="1"><g transform="translate(131.84346, 309.621101)"><g><path d="M 4.375 -0.90625 L 4.375 0 L 0.578125 0 L 0.578125 -4.90625 L 4.28125 -4.90625 L 4.28125 -3.984375 L 1.703125 -3.984375 L 1.703125 -2.921875 L 3.984375 -2.921875 L 3.984375 -2.046875 L 1.703125 -2.046875 L 1.703125 -0.90625 Z M 4.375 -0.90625 "/></g></g></g><g fill="#000000" fill-opacity="1"><g transform="translate(138.962519, 309.621101)"><g><path d="M 5.046875 0 L 5.03125 -2.9375 L 3.59375 -0.515625 L 3.078125 -0.515625 L 1.640625 -2.875 L 1.640625 0 L 0.578125 0 L 0.578125 -4.90625 L 1.515625 -4.90625 L 3.359375 -1.859375 L 5.15625 -4.90625 L 6.09375 -4.90625 L 6.109375 0 Z M 5.046875 0 "/></g></g></g><g fill="#000000" fill-opacity="1" style=""><g transform="translate(148.069596, 309.621101)"><g><path d="M 2.953125 0.078125 C 2.441406 0.078125 1.984375 -0.03125 1.578125 -0.25 C 1.171875 -0.46875 0.847656 -0.769531 0.609375 -1.15625 C 0.378906 -1.539062 0.265625 -1.972656 0.265625 -2.453125 C 0.265625 -2.929688 0.378906 -3.363281 0.609375 -3.75 C 0.847656 -4.132812 1.171875 -4.4375 1.578125 -4.65625 C 1.984375 -4.875 2.441406 -4.984375 2.953125 -4.984375 C 3.460938 -4.984375 3.921875 -4.875 4.328125 -4.65625 C 4.734375 -4.4375 5.050781 -4.132812 5.28125 -3.75 C 5.519531 -3.363281 5.640625 -2.929688 5.640625 -2.453125 C 5.640625 -1.972656 5.519531 -1.539062 5.28125 -1.15625 C 5.050781 -0.769531 4.734375 -0.46875 4.328125 -0.25 C 3.921875 -0.03125 3.460938 0.078125 2.953125 0.078125 Z M 2.953125 -0.875 C 3.242188 -0.875 3.503906 -0.941406 3.734375 -1.078125 C 3.972656 -1.210938 4.15625 -1.398438 4.28125 -1.640625 C 4.414062 -1.878906 4.484375 -2.148438 4.484375 -2.453125 C 4.484375 -2.753906 4.414062 -3.023438 4.28125 -3.265625 C 4.15625 -3.503906 3.972656 -3.6875 3.734375 -3.8125 C 3.503906 -3.945312 3.242188 -4.015625 2.953125 -4.015625 C 2.660156 -4.015625 2.394531 -3.945312 2.15625 -3.8125 C 1.925781 -3.6875 1.742188 -3.503906 1.609375 -3.265625 C 1.484375 -3.023438 1.421875 -2.753906 1.421875 -2.453125 C 1.421875 -2.148438 1.484375 -1.878906 1.609375 -1.640625 C 1.742188 -1.398438 1.925781 -1.210938 2.15625 -1.078125 C 2.394531 -0.941406 2.660156 -0.875 2.953125 -0.875 Z M 2.953125 -0.875 "/></g></g></g><g fill="#000000" fill-opacity="1"><g transform="translate(156.399661, 309.621101)"><g><path d="M 2.1875 0.078125 C 1.800781 0.078125 1.425781 0.0234375 1.0625 -0.078125 C 0.707031 -0.179688 0.421875 -0.316406 0.203125 -0.484375 L 0.578125 -1.34375 C 0.785156 -1.1875 1.035156 -1.0625 1.328125 -0.96875 C 1.617188 -0.875 1.910156 -0.828125 2.203125 -0.828125 C 2.523438 -0.828125 2.757812 -0.875 2.90625 -0.96875 C 3.0625 -1.0625 3.140625 -1.1875 3.140625 -1.34375 C 3.140625 -1.46875 3.09375 -1.566406 3 -1.640625 C 2.914062 -1.710938 2.800781 -1.769531 2.65625 -1.8125 C 2.507812 -1.863281 2.316406 -1.921875 2.078125 -1.984375 C 1.703125 -2.066406 1.394531 -2.148438 1.15625 -2.234375 C 0.925781 -2.328125 0.722656 -2.472656 0.546875 -2.671875 C 0.378906 -2.867188 0.296875 -3.128906 0.296875 -3.453125 C 0.296875 -3.742188 0.367188 -4.003906 0.515625 -4.234375 C 0.671875 -4.460938 0.90625 -4.644531 1.21875 -4.78125 C 1.53125 -4.914062 1.910156 -4.984375 2.359375 -4.984375 C 2.671875 -4.984375 2.972656 -4.945312 3.265625 -4.875 C 3.566406 -4.800781 3.832031 -4.691406 4.0625 -4.546875 L 3.703125 -3.6875 C 3.253906 -3.945312 2.804688 -4.078125 2.359375 -4.078125 C 2.035156 -4.078125 1.796875 -4.023438 1.640625 -3.921875 C 1.492188 -3.816406 1.421875 -3.679688 1.421875 -3.515625 C 1.421875 -3.347656 1.507812 -3.222656 1.6875 -3.140625 C 1.863281 -3.054688 2.128906 -2.972656 2.484375 -2.890625 C 2.859375 -2.804688 3.164062 -2.71875 3.40625 -2.625 C 3.644531 -2.539062 3.847656 -2.398438 4.015625 -2.203125 C 4.179688 -2.015625 4.265625 -1.757812 4.265625 -1.4375 C 4.265625 -1.15625 4.1875 -0.898438 4.03125 -0.671875 C 3.875 -0.441406 3.640625 -0.257812 3.328125 -0.125 C 3.015625 0.0078125 2.632812 0.078125 2.1875 0.078125 Z M 2.1875 0.078125 "/></g></g></g><g fill="#000000" fill-opacity="1"><g transform="translate(163.287712, 309.621101)"><g><path d="M 5.078125 -4.90625 L 5.078125 0 L 3.9375 0 L 3.9375 -2.015625 L 1.71875 -2.015625 L 1.71875 0 L 0.578125 0 L 0.578125 -4.90625 L 1.71875 -4.90625 L 1.71875 -2.96875 L 3.9375 -2.96875 L 3.9375 -4.90625 Z M 5.078125 -4.90625 "/></g></g></g><g fill="#000000" fill-opacity="1"><g transform="translate(171.365786, 309.621101)"><g><path d="M 4.375 -0.90625 L 4.375 0 L 0.578125 0 L 0.578125 -4.90625 L 4.28125 -4.90625 L 4.28125 -3.984375 L 1.703125 -3.984375 L 1.703125 -2.921875 L 3.984375 -2.921875 L 3.984375 -2.046875 L 1.703125 -2.046875 L 1.703125 -0.90625 Z M 4.375 -0.90625 "/></g></g></g><g fill="#000000" fill-opacity="1"><g transform="translate(178.484849, 309.621101)"><g><path d="M 3.703125 0 L 2.765625 -1.359375 L 1.71875 -1.359375 L 1.71875 0 L 0.578125 0 L 0.578125 -4.90625 L 2.703125 -4.90625 C 3.140625 -4.90625 3.515625 -4.832031 3.828125 -4.6875 C 4.148438 -4.539062 4.394531 -4.332031 4.5625 -4.0625 C 4.738281 -3.800781 4.828125 -3.488281 4.828125 -3.125 C 4.828125 -2.757812 4.738281 -2.441406 4.5625 -2.171875 C 4.394531 -1.910156 4.148438 -1.710938 3.828125 -1.578125 L 4.921875 0 Z M 3.6875 -3.125 C 3.6875 -3.394531 3.597656 -3.601562 3.421875 -3.75 C 3.242188 -3.894531 2.984375 -3.96875 2.640625 -3.96875 L 1.71875 -3.96875 L 1.71875 -2.265625 L 2.640625 -2.265625 C 2.984375 -2.265625 3.242188 -2.335938 3.421875 -2.484375 C 3.597656 -2.640625 3.6875 -2.851562 3.6875 -3.125 Z M 3.6875 -3.125 "/></g></g></g><g fill="#000000" fill-opacity="1"><g transform="translate(186.051917, 309.621101)"><g><path d="M 0.921875 0.0625 C 0.722656 0.0625 0.554688 -0.00390625 0.421875 -0.140625 C 0.296875 -0.273438 0.234375 -0.4375 0.234375 -0.625 C 0.234375 -0.832031 0.296875 -0.992188 0.421875 -1.109375 C 0.554688 -1.234375 0.722656 -1.296875 0.921875 -1.296875 C 1.109375 -1.296875 1.265625 -1.234375 1.390625 -1.109375 C 1.523438 -0.992188 1.59375 -0.832031 1.59375 -0.625 C 1.59375 -0.4375 1.523438 -0.273438 1.390625 -0.140625 C 1.265625 -0.00390625 1.109375 0.0625 0.921875 0.0625 Z M 0.921875 0.0625 "/></g></g></g><g fill="#000000" fill-opacity="1"><g transform="translate(190.307942, 309.621101)"><g><path d="M 2.921875 0.078125 C 2.421875 0.078125 1.96875 -0.0234375 1.5625 -0.234375 C 1.164062 -0.453125 0.847656 -0.753906 0.609375 -1.140625 C 0.378906 -1.523438 0.265625 -1.960938 0.265625 -2.453125 C 0.265625 -2.929688 0.378906 -3.363281 0.609375 -3.75 C 0.847656 -4.132812 1.164062 -4.4375 1.5625 -4.65625 C 1.96875 -4.875 2.425781 -4.984375 2.9375 -4.984375 C 3.351562 -4.984375 3.734375 -4.90625 4.078125 -4.75 C 4.421875 -4.601562 4.710938 -4.390625 4.953125 -4.109375 L 4.21875 -3.4375 C 3.882812 -3.820312 3.472656 -4.015625 2.984375 -4.015625 C 2.679688 -4.015625 2.410156 -3.945312 2.171875 -3.8125 C 1.929688 -3.6875 1.742188 -3.503906 1.609375 -3.265625 C 1.484375 -3.023438 1.421875 -2.753906 1.421875 -2.453125 C 1.421875 -2.148438 1.484375 -1.878906 1.609375 -1.640625 C 1.742188 -1.398438 1.929688 -1.210938 2.171875 -1.078125 C 2.410156 -0.941406 2.679688 -0.875 2.984375 -0.875 C 3.472656 -0.875 3.882812 -1.070312 4.21875 -1.46875 L 4.953125 -0.796875 C 4.710938 -0.503906 4.421875 -0.285156 4.078125 -0.140625 C 3.734375 0.00390625 3.347656 0.078125 2.921875 0.078125 Z M 2.921875 0.078125 "/></g></g></g><g fill="#000000" fill-opacity="1"><g transform="translate(197.861, 309.621101)"><g><path d="M 2.953125 0.078125 C 2.441406 0.078125 1.984375 -0.03125 1.578125 -0.25 C 1.171875 -0.46875 0.847656 -0.769531 0.609375 -1.15625 C 0.378906 -1.539062 0.265625 -1.972656 0.265625 -2.453125 C 0.265625 -2.929688 0.378906 -3.363281 0.609375 -3.75 C 0.847656 -4.132812 1.171875 -4.4375 1.578125 -4.65625 C 1.984375 -4.875 2.441406 -4.984375 2.953125 -4.984375 C 3.460938 -4.984375 3.921875 -4.875 4.328125 -4.65625 C 4.734375 -4.4375 5.050781 -4.132812 5.28125 -3.75 C 5.519531 -3.363281 5.640625 -2.929688 5.640625 -2.453125 C 5.640625 -1.972656 5.519531 -1.539062 5.28125 -1.15625 C 5.050781 -0.769531 4.734375 -0.46875 4.328125 -0.25 C 3.921875 -0.03125 3.460938 0.078125 2.953125 0.078125 Z M 2.953125 -0.875 C 3.242188 -0.875 3.503906 -0.941406 3.734375 -1.078125 C 3.972656 -1.210938 4.15625 -1.398438 4.28125 -1.640625 C 4.414062 -1.878906 4.484375 -2.148438 4.484375 -2.453125 C 4.484375 -2.753906 4.414062 -3.023438 4.28125 -3.265625 C 4.15625 -3.503906 3.972656 -3.6875 3.734375 -3.8125 C 3.503906 -3.945312 3.242188 -4.015625 2.953125 -4.015625 C 2.660156 -4.015625 2.394531 -3.945312 2.15625 -3.8125 C 1.925781 -3.6875 1.742188 -3.503906 1.609375 -3.265625 C 1.484375 -3.023438 1.421875 -2.753906 1.421875 -2.453125 C 1.421875 -2.148438 1.484375 -1.878906 1.609375 -1.640625 C 1.742188 -1.398438 1.925781 -1.210938 2.15625 -1.078125 C 2.394531 -0.941406 2.660156 -0.875 2.953125 -0.875 Z M 2.953125 -0.875 "/></g></g></g><g fill="#000000" fill-opacity="1"><g transform="translate(206.19106, 309.621101)"><g><path d="M 5.046875 0 L 5.03125 -2.9375 L 3.59375 -0.515625 L 3.078125 -0.515625 L 1.640625 -2.875 L 1.640625 0 L 0.578125 0 L 0.578125 -4.90625 L 1.515625 -4.90625 L 3.359375 -1.859375 L 5.15625 -4.90625 L 6.09375 -4.90625 L 6.109375 0 Z M 5.046875 0 "/></g></g></g><g fill="#000000" fill-opacity="1"><g transform="translate(219.701167, 309.621101)"><g><path d="M 2.625 -3.078125 C 2.9375 -3.078125 3.222656 -3.007812 3.484375 -2.875 C 3.742188 -2.75 3.945312 -2.570312 4.09375 -2.34375 C 4.238281 -2.113281 4.3125 -1.847656 4.3125 -1.546875 C 4.3125 -1.222656 4.226562 -0.9375 4.0625 -0.6875 C 3.90625 -0.4375 3.6875 -0.242188 3.40625 -0.109375 C 3.125 0.015625 2.8125 0.078125 2.46875 0.078125 C 1.78125 0.078125 1.238281 -0.128906 0.84375 -0.546875 C 0.457031 -0.960938 0.265625 -1.5625 0.265625 -2.34375 C 0.265625 -2.894531 0.367188 -3.367188 0.578125 -3.765625 C 0.796875 -4.171875 1.09375 -4.472656 1.46875 -4.671875 C 1.84375 -4.878906 2.273438 -4.984375 2.765625 -4.984375 C 3.023438 -4.984375 3.273438 -4.953125 3.515625 -4.890625 C 3.765625 -4.835938 3.972656 -4.753906 4.140625 -4.640625 L 3.71875 -3.8125 C 3.476562 -3.976562 3.171875 -4.0625 2.796875 -4.0625 C 2.378906 -4.0625 2.050781 -3.9375 1.8125 -3.6875 C 1.570312 -3.445312 1.441406 -3.097656 1.421875 -2.640625 C 1.710938 -2.929688 2.113281 -3.078125 2.625 -3.078125 Z M 2.40625 -0.765625 C 2.644531 -0.765625 2.835938 -0.828125 2.984375 -0.953125 C 3.140625 -1.085938 3.21875 -1.265625 3.21875 -1.484375 C 3.21875 -1.710938 3.140625 -1.890625 2.984375 -2.015625 C 2.835938 -2.148438 2.640625 -2.21875 2.390625 -2.21875 C 2.140625 -2.21875 1.9375 -2.148438 1.78125 -2.015625 C 1.625 -1.878906 1.546875 -1.703125 1.546875 -1.484375 C 1.546875 -1.273438 1.617188 -1.101562 1.765625 -0.96875 C 1.921875 -0.832031 2.132812 -0.765625 2.40625 -0.765625 Z M 2.40625 -0.765625 "/></g></g></g><g fill="#000000" fill-opacity="1"><g transform="translate(226.582226, 309.621101)"><g><path d="M 2.15625 -4.90625 L 2.15625 0 L 1.03125 0 L 1.03125 -3.984375 L 0.046875 -3.984375 L 0.046875 -4.90625 Z M 2.15625 -4.90625 "/></g></g></g><g fill="#000000" fill-opacity="1"><g transform="translate(231.748271, 309.621101)"><g><path d="M 2 -4.984375 C 2.6875 -4.984375 3.222656 -4.773438 3.609375 -4.359375 C 3.992188 -3.941406 4.1875 -3.34375 4.1875 -2.5625 C 4.1875 -2 4.082031 -1.519531 3.875 -1.125 C 3.664062 -0.726562 3.367188 -0.425781 2.984375 -0.21875 C 2.609375 -0.0195312 2.175781 0.078125 1.6875 0.078125 C 1.425781 0.078125 1.175781 0.0507812 0.9375 0 C 0.695312 -0.0625 0.492188 -0.144531 0.328125 -0.25 L 0.75 -1.078125 C 0.988281 -0.921875 1.296875 -0.84375 1.671875 -0.84375 C 2.078125 -0.84375 2.398438 -0.960938 2.640625 -1.203125 C 2.890625 -1.453125 3.023438 -1.804688 3.046875 -2.265625 C 2.753906 -1.972656 2.347656 -1.828125 1.828125 -1.828125 C 1.515625 -1.828125 1.226562 -1.890625 0.96875 -2.015625 C 0.71875 -2.140625 0.515625 -2.316406 0.359375 -2.546875 C 0.210938 -2.773438 0.140625 -3.046875 0.140625 -3.359375 C 0.140625 -3.679688 0.21875 -3.960938 0.375 -4.203125 C 0.539062 -4.453125 0.765625 -4.644531 1.046875 -4.78125 C 1.335938 -4.914062 1.65625 -4.984375 2 -4.984375 Z M 2.078125 -2.671875 C 2.328125 -2.671875 2.53125 -2.738281 2.6875 -2.875 C 2.84375 -3.019531 2.921875 -3.195312 2.921875 -3.40625 C 2.921875 -3.625 2.84375 -3.800781 2.6875 -3.9375 C 2.539062 -4.070312 2.332031 -4.140625 2.0625 -4.140625 C 1.820312 -4.140625 1.625 -4.070312 1.46875 -3.9375 C 1.320312 -3.8125 1.25 -3.632812 1.25 -3.40625 C 1.25 -3.1875 1.320312 -3.007812 1.46875 -2.875 C 1.625 -2.738281 1.828125 -2.671875 2.078125 -2.671875 Z M 2.078125 -2.671875 "/></g></g></g><g fill="#000000" fill-opacity="1"><g transform="translate(238.629322, 309.621101)"><g><path d="M 0.359375 -2.40625 L 2.34375 -2.40625 L 2.34375 -1.53125 L 0.359375 -1.53125 Z M 0.359375 -2.40625 "/></g></g></g><g fill="#000000" fill-opacity="1"><g transform="translate(243.753353, 309.621101)"><g><path d="M 2.625 -3.078125 C 2.9375 -3.078125 3.222656 -3.007812 3.484375 -2.875 C 3.742188 -2.75 3.945312 -2.570312 4.09375 -2.34375 C 4.238281 -2.113281 4.3125 -1.847656 4.3125 -1.546875 C 4.3125 -1.222656 4.226562 -0.9375 4.0625 -0.6875 C 3.90625 -0.4375 3.6875 -0.242188 3.40625 -0.109375 C 3.125 0.015625 2.8125 0.078125 2.46875 0.078125 C 1.78125 0.078125 1.238281 -0.128906 0.84375 -0.546875 C 0.457031 -0.960938 0.265625 -1.5625 0.265625 -2.34375 C 0.265625 -2.894531 0.367188 -3.367188 0.578125 -3.765625 C 0.796875 -4.171875 1.09375 -4.472656 1.46875 -4.671875 C 1.84375 -4.878906 2.273438 -4.984375 2.765625 -4.984375 C 3.023438 -4.984375 3.273438 -4.953125 3.515625 -4.890625 C 3.765625 -4.835938 3.972656 -4.753906 4.140625 -4.640625 L 3.71875 -3.8125 C 3.476562 -3.976562 3.171875 -4.0625 2.796875 -4.0625 C 2.378906 -4.0625 2.050781 -3.9375 1.8125 -3.6875 C 1.570312 -3.445312 1.441406 -3.097656 1.421875 -2.640625 C 1.710938 -2.929688 2.113281 -3.078125 2.625 -3.078125 Z M 2.40625 -0.765625 C 2.644531 -0.765625 2.835938 -0.828125 2.984375 -0.953125 C 3.140625 -1.085938 3.21875 -1.265625 3.21875 -1.484375 C 3.21875 -1.710938 3.140625 -1.890625 2.984375 -2.015625 C 2.835938 -2.148438 2.640625 -2.21875 2.390625 -2.21875 C 2.140625 -2.21875 1.9375 -2.148438 1.78125 -2.015625 C 1.625 -1.878906 1.546875 -1.703125 1.546875 -1.484375 C 1.546875 -1.273438 1.617188 -1.101562 1.765625 -0.96875 C 1.921875 -0.832031 2.132812 -0.765625 2.40625 -0.765625 Z M 2.40625 -0.765625 "/></g></g></g><g fill="#000000" fill-opacity="1"><g transform="translate(250.634404, 309.621101)"><g><path d="M 1.953125 -3.0625 C 2.640625 -3.0625 3.144531 -2.921875 3.46875 -2.640625 C 3.800781 -2.367188 3.96875 -2.003906 3.96875 -1.546875 C 3.96875 -1.242188 3.894531 -0.96875 3.75 -0.71875 C 3.601562 -0.476562 3.375 -0.285156 3.0625 -0.140625 C 2.757812 0.00390625 2.382812 0.078125 1.9375 0.078125 C 1.59375 0.078125 1.253906 0.0351562 0.921875 -0.046875 C 0.585938 -0.140625 0.300781 -0.269531 0.0625 -0.4375 L 0.515625 -1.3125 C 0.703125 -1.164062 0.914062 -1.054688 1.15625 -0.984375 C 1.40625 -0.910156 1.65625 -0.875 1.90625 -0.875 C 2.195312 -0.875 2.421875 -0.925781 2.578125 -1.03125 C 2.742188 -1.144531 2.828125 -1.300781 2.828125 -1.5 C 2.828125 -1.707031 2.738281 -1.863281 2.5625 -1.96875 C 2.394531 -2.082031 2.101562 -2.140625 1.6875 -2.140625 L 0.4375 -2.140625 L 0.6875 -4.90625 L 3.671875 -4.90625 L 3.671875 -3.984375 L 1.625 -3.984375 L 1.546875 -3.0625 Z M 1.953125 -3.0625 "/></g></g></g><g fill="#000000" fill-opacity="1"><g transform="translate(257.221455, 309.621101)"><g><path d="M 2.15625 -4.90625 L 2.15625 0 L 1.03125 0 L 1.03125 -3.984375 L 0.046875 -3.984375 L 0.046875 -4.90625 Z M 2.15625 -4.90625 "/></g></g></g><g fill="#000000" fill-opacity="1"><g transform="translate(262.3875, 309.621101)"><g><path d="M 0.359375 -2.40625 L 2.34375 -2.40625 L 2.34375 -1.53125 L 0.359375 -1.53125 Z M 0.359375 -2.40625 "/></g></g></g><g fill="#000000" fill-opacity="1"><g transform="translate(267.511531, 309.621101)"><g><path d="M 2.625 -3.078125 C 2.9375 -3.078125 3.222656 -3.007812 3.484375 -2.875 C 3.742188 -2.75 3.945312 -2.570312 4.09375 -2.34375 C 4.238281 -2.113281 4.3125 -1.847656 4.3125 -1.546875 C 4.3125 -1.222656 4.226562 -0.9375 4.0625 -0.6875 C 3.90625 -0.4375 3.6875 -0.242188 3.40625 -0.109375 C 3.125 0.015625 2.8125 0.078125 2.46875 0.078125 C 1.78125 0.078125 1.238281 -0.128906 0.84375 -0.546875 C 0.457031 -0.960938 0.265625 -1.5625 0.265625 -2.34375 C 0.265625 -2.894531 0.367188 -3.367188 0.578125 -3.765625 C 0.796875 -4.171875 1.09375 -4.472656 1.46875 -4.671875 C 1.84375 -4.878906 2.273438 -4.984375 2.765625 -4.984375 C 3.023438 -4.984375 3.273438 -4.953125 3.515625 -4.890625 C 3.765625 -4.835938 3.972656 -4.753906 4.140625 -4.640625 L 3.71875 -3.8125 C 3.476562 -3.976562 3.171875 -4.0625 2.796875 -4.0625 C 2.378906 -4.0625 2.050781 -3.9375 1.8125 -3.6875 C 1.570312 -3.445312 1.441406 -3.097656 1.421875 -2.640625 C 1.710938 -2.929688 2.113281 -3.078125 2.625 -3.078125 Z M 2.40625 -0.765625 C 2.644531 -0.765625 2.835938 -0.828125 2.984375 -0.953125 C 3.140625 -1.085938 3.21875 -1.265625 3.21875 -1.484375 C 3.21875 -1.710938 3.140625 -1.890625 2.984375 -2.015625 C 2.835938 -2.148438 2.640625 -2.21875 2.390625 -2.21875 C 2.140625 -2.21875 1.9375 -2.148438 1.78125 -2.015625 C 1.625 -1.878906 1.546875 -1.703125 1.546875 -1.484375 C 1.546875 -1.273438 1.617188 -1.101562 1.765625 -0.96875 C 1.921875 -0.832031 2.132812 -0.765625 2.40625 -0.765625 Z M 2.40625 -0.765625 "/></g></g></g><g fill="#000000" fill-opacity="1"><g transform="translate(274.392582, 309.621101)"><g><path d="M 1.953125 -3.0625 C 2.640625 -3.0625 3.144531 -2.921875 3.46875 -2.640625 C 3.800781 -2.367188 3.96875 -2.003906 3.96875 -1.546875 C 3.96875 -1.242188 3.894531 -0.96875 3.75 -0.71875 C 3.601562 -0.476562 3.375 -0.285156 3.0625 -0.140625 C 2.757812 0.00390625 2.382812 0.078125 1.9375 0.078125 C 1.59375 0.078125 1.253906 0.0351562 0.921875 -0.046875 C 0.585938 -0.140625 0.300781 -0.269531 0.0625 -0.4375 L 0.515625 -1.3125 C 0.703125 -1.164062 0.914062 -1.054688 1.15625 -0.984375 C 1.40625 -0.910156 1.65625 -0.875 1.90625 -0.875 C 2.195312 -0.875 2.421875 -0.925781 2.578125 -1.03125 C 2.742188 -1.144531 2.828125 -1.300781 2.828125 -1.5 C 2.828125 -1.707031 2.738281 -1.863281 2.5625 -1.96875 C 2.394531 -2.082031 2.101562 -2.140625 1.6875 -2.140625 L 0.4375 -2.140625 L 0.6875 -4.90625 L 3.671875 -4.90625 L 3.671875 -3.984375 L 1.625 -3.984375 L 1.546875 -3.0625 Z M 1.953125 -3.0625 "/></g></g></g><g fill="#000000" fill-opacity="1"><g transform="translate(280.979634, 309.621101)"><g><path d="M 4.109375 -4.90625 L 4.109375 -4.171875 L 2.28125 0 L 1.0625 0 L 2.8125 -3.96875 L 1.1875 -3.96875 L 1.1875 -3.171875 L 0.1875 -3.171875 L 0.1875 -4.90625 Z M 4.109375 -4.90625 "/></g></g></g><g fill="#000000" fill-opacity="1" style=""><g transform="translate(287.741678, 309.621101)"><g><path d="M 2.5625 -2.90625 C 2.988281 -2.832031 3.316406 -2.671875 3.546875 -2.421875 C 3.773438 -2.171875 3.890625 -1.863281 3.890625 -1.5 C 3.890625 -1.21875 3.8125 -0.953125 3.65625 -0.703125 C 3.507812 -0.460938 3.285156 -0.269531 2.984375 -0.125 C 2.679688 0.0078125 2.304688 0.078125 1.859375 0.078125 C 1.515625 0.078125 1.175781 0.0351562 0.84375 -0.046875 C 0.507812 -0.140625 0.226562 -0.269531 0 -0.4375 L 0.4375 -1.3125 C 0.625 -1.164062 0.835938 -1.054688 1.078125 -0.984375 C 1.328125 -0.910156 1.578125 -0.875 1.828125 -0.875 C 2.117188 -0.875 2.34375 -0.925781 2.5 -1.03125 C 2.664062 -1.144531 2.75 -1.300781 2.75 -1.5 C 2.75 -1.894531 2.441406 -2.09375 1.828125 -2.09375 L 1.3125 -2.09375 L 1.3125 -2.84375 L 2.328125 -3.984375 L 0.234375 -3.984375 L 0.234375 -4.90625 L 3.671875 -4.90625 L 3.671875 -4.171875 Z M 2.5625 -2.90625 "/></g></g></g></g><g fill="#000000" fill-opacity="1" style=""><g transform="translate(215.298142, 309.621101)"><g/></g></g><a style="mask: url(&quot;#mask-0&quot;);"><path d="M 76.806 242.469 L 76.806 245.25 L 107.384 245.25 L 107.384 242.469 L 93.494 242.469 L 93.494 134.219 L 132.228 245.25 L 134.494 245.25 L 173.244 133.531 L 173.244 242.469 L 159.338 242.469 L 159.338 245.25 L 203.994 245.25 L 203.994 242.469 L 190.088 242.469 L 190.088 131.266 L 203.994 131.266 L 203.994 128.484 L 171.853 128.484 L 140.916 217.797 L 108.947 128.484 L 76.806 128.484 L 76.806 131.266 L 90.713 131.266 L 90.713 242.469 L 76.806 242.469 Z M 76.806 242.469" style=""/><path d="M 174.646 239.989 L 174.646 242.723 L 204.756 242.723 L 204.756 239.989 L 191.068 239.989 L 191.068 133.426 L 229.209 242.723 L 231.443 242.723 L 269.584 132.739 L 269.584 239.989 L 255.896 239.989 L 255.896 242.723 L 299.85 242.723 L 299.85 239.989 L 286.178 239.989 L 286.178 130.52 L 299.85 130.52 L 299.85 127.786 L 268.209 127.786 L 237.771 215.692 L 206.287 127.786 L 174.646 127.786 L 174.646 130.52 L 188.334 130.52 L 188.334 239.989 L 174.646 239.989 Z M 174.646 239.989"/></a></svg>